<svg xmlns="http://www.w3.org/2000/svg" version="1" viewBox="0 0 600 660">
      <defs>
        <radialGradient
          id="a"
          cx="221.44"
          cy="226.33"
          r="300"
          gradientTransform="matrix(1.3532 0 0 1.3489 -77.629 -85.747)"
          gradientUnits="userSpaceOnUse"
        >
          <stop offset="0" stopColor="#fff" stopOpacity="0.314"></stop>
          <stop offset="0.19" stopColor="#fff" stopOpacity="0.251"></stop>
          <stop offset="0.6" stopColor="#6b6b6b" stopOpacity="0.125"></stop>
          <stop offset="1" stopOpacity="0.125"></stop>
        </radialGradient>
      </defs>
      <path
        fill="#2b5df2"
        fillRule="evenodd"
        d="M300 658.5s298.5-112.32 298.5-397.77V2.18H1.5v258.55C1.5 546.18 300 658.5 300 658.5z"
      ></path>
      <path
        fill="#fcef3c"
        stroke="#000"
        strokeWidth="1.315"
        d="M893.3 485.38c.405 1.448 1.067 2.778 2.026 3.885"
      ></path>
      <g fill="#fcef3c" stroke="#000" strokeWidth="1.426">
        <path
          d="M850.62 27.719c-8.603 2.858-13.604 8.453-15 16.562-9.882-5.616-14.021.539-15.531 12-11.186-1.275-13.323 5.641-10.281 18.188-14.307 1.637-17.593 9.48-11.812 22.5-12.456 5.338-15.066 13.968-3.25 27.438-11.751 10.74-10.124 19.449 4.906 26.125-4.46 13.29 1.305 19.717 16.094 20 1.754 11.669 7.364 13.847 27.531 9.969 2.352 2.628 2.359 11.263 3.063 16.188-.385 7.597-.058 21.658-.344 35.938-3.489-4.595-10.835-4.893-12.844-10.97-29.017-46.04-61.414-70.441-82-95.311-2.926 6.445 38.534 41.152 70.312 83.594-30.104-31.917-61.944-56.613-82.375-76.97-.677 7.579 44.174 42.295 78.844 77.5-31.895-26.47-65.787-51.446-87.375-69.78 1.895 8.611 52.473 46.283 91.75 78.594-37.64-25.42-72.487-49.167-97.75-67.531 3.54 9.763 53.315 42.579 93.969 69.156-41.834-18.41-72.18-42.251-97.938-58.906 3.47 9.785 54.522 43.909 102.84 65.406 8.857 3.09 16.58 6.673 22.5 12.625-.24 29.228-.343 44.605 1.156 46.312 3.783-3.03 11.055 2.123 13.97-1.469-1.212-1.338-1.738-8.938-2.032-24.5l.094 1c7.734-5.376 12.96-13.573 22.094-19.344 3.4-2.198 6.69-4.428 9.844-6.656 35.344-24.964 55.906-51.33 76.875-68.72-8.212-.04-38.1 35.096-77.875 64.939 29.907-28.262 52.646-57.07 71.719-76.25-8.256 1.072-39.575 40.109-72.562 72.656 24.797-29.938 48.106-60.361 65.28-80.625-8.162 1.451-43.356 49.259-73.624 86.125 23.807-35.324 46.112-68.01 63.312-91.72-7.54.919-39.955 50.005-64.844 88.157 16.926-33.575 39.558-67.681 55.156-91.875-8.259 2.593-36.602 46.603-55.562 84.562-4.591 5.034-3.761 12.736-7.22 17.938-2.106 3.272-5.989 9.416-12.78 13.344-.065-4.7-.11-9.442-.157-15.375-.14-21.032.579-26.497.438-41.812-.291-10.226-1.276-10.347-1.938-12.531 4.52-2.68 7.756-7.18 13.531-8.031 3.791 2.481 8.823 4.112 15.125 4.968 1.646-6.36-1.18-11.673 4.594-15.594 10.993.827 14.86-5.194 11.625-18.188 16.333-11.413 14.868-18.343 5.25-23.25 9.39-18.708 4.349-26.366-10.53-26.375 5.22-15.882 1.697-21.568-10.657-17.125 3.084-15.292-.568-21.687-10.875-19.094 2.584-13.19-3.368-15.337-11.75-17.875-3.88-7.464-8.253-12.507-12.969-15.906z"
          transform="translate(.074) translate(-791.08 -4.888) scale(1.1221)"
        ></path>
        <g strokeWidth="1.397">
          <path
            d="M200.27 416.76c5.907 1.342 13.045-2.893 21.414-12.706 10.502-4.367 20.469-9.797 21.787-16.111.056-.347.052-.283.257-.026 3.413 4.07 16.424-.924 13.47-3.708M195.66 443.04c9.426-2.141 17.724-7.569 25.51-14.491 7.796-1.743 14.464-6.774 20.619-13.299 6.105-2.832 11.543-6.311 16.008-10.737 4.405-3.937 8.81-8.123 13.215-12.858M199.24 469.63c9.39-1.66 17.254-9.774 23.11-17.231 8.49-1.291 14.528-6.672 19.739-15.134 6.189-2.642 11.967-6.478 17.336-11.51 6.305-3.355 13.461-7.85 18.127-13.595 7.861-.914 11.092-3.352 12.393-9.843M210.7 491.73c5.22-4.07 11.97-10.454 16.37-16.117 1.221-.007 2.584-.23 3.79-.352 4.855-.49 10.258-5.216 13.448-12.82 6.32-3.373 11.818-8.34 16.498-14.898 5.477-2.612 9.825-6.867 13.661-11.87 9.818-5.41 19.797-9.134 26.794-15.431M220.68 509.58c3.67-.507 8.31-7.367 11.66-13.26 6.01-2.006 11.022-5.308 14.573-10.502 6.042-3.375 11.341-8.194 15.744-14.757 12.811-3.677 13.905-11.306 17.856-14.181 1.034-.058 1.887-.225 3.266-.74 5.192-2.345 12.533-7.794 13.61-12.722M235.93 521.29c4.935-2.522 9.663-10.548 15.563-13.892 7.146-2.432 12.243-6.457 15.288-12.075 6.376-3.833 11.112-9.26 14.209-16.28 5.694-.946 12.159-4.072 15.052-10.178"
            transform="translate(.074) translate(-791.08 -4.888) scale(1.1221) matrix(1.0205 0 0 -1.0205 594.76 576.21)"
          ></path>
          <path
            d="M301.4 420.29c-9.01 1.167-16.849-1.463-23.4-8.263-7.197-.261-13.83-3.263-20.207-7.509-6.7-2.302-13.027-5.531-19.728-9.428M306.51 443.08c-10.321 1.018-20.897-.454-32.039-7.405-5.213-1.929-10.427-5.052-15.64-9.372-6.602-2.339-12.077-6.32-17.039-11.05-7.105-1.612-19.697-6.481-20.139-11.117-2.104-.717-5.554-5.694-5.36-6.498M296.13 468.95c-6.23-2.033-7.972-7.219-12.095-12.95-1.248.702-2.403.69-3.742.895-5.422.827-11.8-1.971-19.486-9.35-6.675-2.157-12.865-5.734-18.72-10.283-7.526-2.185-12.284-4.669-18.888-9.245-8.24-1.241-15.66-4.873-22.259-10.896M285.55 485.73c-2.807-1.816-4.214-4.074-4.561-6.687-6.522-1.068-12.633-3.728-18.334-7.983-7.193-1.478-13.617-3.952-18.349-8.618-8.597-1.901-15.144-5.395-19.64-10.482-7.933 1.044-15.867-1.15-23.801-10.464M275.11 504.57c-2.774-3.01-4.626-6.83-8.322-9.242-7.3-2.184-13.984-4.667-20.053-9.24-5.33-3.433-12.156-6.433-15.95-10.762-1.15.004-2.502.35-3.63.278-7.89-.503-14.928-3.303-20.815-8.64M263.42 521.91c-3.253-.877-4.508-12.361-11.921-14.509-12.536-4.091-18.92-6.589-19.155-11.079-5.177-3.146-14.353-3.006-18.3-7.647"
            transform="translate(.074) translate(-791.08 -4.888) scale(1.1221) matrix(1.0205 0 0 -1.0205 594.76 576.21)"
          ></path>
        </g>
        <path
          strokeWidth="0.891"
          d="M849.4 34.096c5.335 2.845 6.905 5.08 2.825 14.023m41.428 41.461c-.032-2.642 1.618-5.62-3.139-7.317m-13.496-18.292c5.336 2.845 6.905 5.081 2.825 14.024M822.095 67.02c-1.277-2.988-4.785-4.892-7.847-7.012v0m20.4 21.34c-1.277-6.24-5.099-2.927-8.16-3.963m-11.613 10.67c-1.276-2.988-4.785-4.892-7.846-7.012m36.092-14.634c3.662-3.963 7.323-2.133 10.043 3.66m11.927-21.036c5.336 2.845 6.905 5.081 2.825 14.023m-38.29-16.767c5.336 2.845 6.905 5.081 2.825 14.023m37.034 24.083c-1.277-6.24-5.099-2.927-8.16-3.963m17.078 14.633c3.662-3.963 7.323-2.134 10.043 3.658m-47.52-10.975c3.66-3.963 7.322-2.134 10.042 3.658M821.466 97.2c3.662-3.964 7.323-2.135 10.043 3.658m25.422 2.134c3.662-3.964 7.323-2.134 10.043 3.658m28.561-1.525c3.662-3.963 7.323-2.134 10.043 3.659m-33.269 8.84c3.662-3.962 7.323-2.133 10.043 3.66m10.358 8.535c3.662-3.963 7.323-2.134 10.043 3.659m-49.274-6.403c3.662-3.963 7.323-2.134 10.043 3.659m-45.508-9.45c3.662-3.964 7.323-2.135 10.043 3.657m8.474-11.889c3.662-3.963 7.323-2.134 10.043 3.659m-39.23-4.574c-1.278-2.988-4.786-4.891-7.847-7.011v0m72.812 35.364c3.662-3.964 7.323-2.135 10.043 3.658m-76.265-5.792c-1.277-2.988-4.785-4.892-7.846-7.012v0m37.662 5.792c3.661-3.963 7.323-2.134 10.043 3.659"
          transform="translate(.074) translate(-791.08 -4.888) scale(1.1221)"
        ></path>
        <g>
          <path
            d="M850.62 27.719c-8.603 2.858-13.604 8.453-15 16.562-9.882-5.616-14.021.539-15.531 12-11.186-1.275-13.323 5.641-10.281 18.188-14.307 1.637-17.593 9.48-11.812 22.5-12.456 5.338-15.066 13.968-3.25 27.438-11.751 10.74-10.124 19.449 4.906 26.125-4.46 13.29 1.305 19.717 16.094 20 1.754 11.669 7.364 13.847 27.531 9.969 2.352 2.628 2.359 11.263 3.063 16.188-.385 7.597-.058 21.658-.344 35.938-3.489-4.595-10.835-4.893-12.844-10.97-29.017-46.04-61.414-70.441-82-95.311-.804 8.214 38.534 41.152 70.312 83.594-30.104-31.917-61.944-56.613-82.375-76.97-.62 10.18 44.174 42.295 78.844 77.5-31.895-26.47-65.787-51.446-87.375-69.78 1.895 8.965 52.473 44.869 91.75 78.594-37.64-25.42-72.487-49.167-97.75-67.531 3.187 9.056 53.315 42.579 93.969 69.156-41.834-18.41-72.18-42.251-97.938-58.906 3.47 9.078 54.168 43.555 102.84 65.406 8.857 3.09 16.58 6.673 22.5 12.625-.24 29.228-.343 44.605 1.156 46.312 3.783-3.03 11.055 2.123 13.97-1.469-1.212-1.338-1.738-8.938-2.032-24.5l.094 1c7.734-5.376 12.96-13.573 22.094-19.344 3.4-2.198 6.69-4.428 9.844-6.656 35.344-24.964 55.906-51.33 76.875-68.72-10.333 1.02-38.1 35.096-77.875 64.939 29.907-28.262 52.646-57.07 71.719-76.25-8.256 1.072-39.575 40.109-72.562 72.656 24.797-29.938 48.106-60.361 65.28-80.625-9.577 2.159-43.356 49.259-73.624 86.125 23.807-35.324 46.112-68.01 63.312-91.72-8.955 3.748-39.955 50.005-64.844 88.157 16.926-33.575 39.558-67.681 55.156-91.875-7.551 3.3-36.602 46.603-55.562 84.562-4.591 5.034-3.761 12.736-7.22 17.938-2.106 3.272-5.989 9.416-12.78 13.344-.065-4.7-.11-9.442-.157-15.375-.14-21.032.579-26.497.438-41.812-.291-10.226-1.276-10.347-1.938-12.531 4.52-2.68 7.756-7.18 13.531-8.031 3.791 2.481 8.823 4.112 15.125 4.968 1.646-6.36-1.18-11.673 4.594-15.594 10.993.827 14.86-5.194 11.625-18.188 16.333-11.413 14.868-18.343 5.25-23.25 9.39-18.708 4.349-26.366-10.53-26.375 5.22-15.882 1.697-21.568-10.657-17.125 3.084-15.292-.568-21.687-10.875-19.094 2.584-13.19-3.368-15.337-11.75-17.875-3.88-7.464-8.253-12.507-12.969-15.906z"
            transform="translate(.074) translate(-503.78 -4.888) scale(1.1221)"
          ></path>
          <g strokeWidth="1.397">
            <path
              d="M200.27 416.76c5.907 1.342 13.045-2.893 21.414-12.706 10.502-4.367 20.469-9.797 21.787-16.111.056-.347.052-.283.257-.026 3.413 4.07 16.424-.924 13.47-3.708M195.66 443.04c9.426-2.141 17.724-7.569 25.51-14.491 7.796-1.743 14.464-6.774 20.619-13.299 6.105-2.832 11.543-6.311 16.008-10.737 4.405-3.937 8.81-8.123 13.215-12.858M199.24 469.63c9.39-1.66 17.254-9.774 23.11-17.231 8.49-1.291 14.528-6.672 19.739-15.134 6.189-2.642 11.967-6.478 17.336-11.51 6.305-3.355 13.461-7.85 18.127-13.595 7.861-.914 11.092-3.352 12.393-9.843M210.7 491.73c5.22-4.07 11.97-10.454 16.37-16.117 1.221-.007 2.584-.23 3.79-.352 4.855-.49 10.258-5.216 13.448-12.82 6.32-3.373 11.818-8.34 16.498-14.898 5.477-2.612 9.825-6.867 13.661-11.87 9.818-5.41 19.797-9.134 26.794-15.431M220.68 509.58c3.67-.507 8.31-7.367 11.66-13.26 6.01-2.006 11.022-5.308 14.573-10.502 6.042-3.375 11.341-8.194 15.744-14.757 12.811-3.677 13.905-11.306 17.856-14.181 1.034-.058 1.887-.225 3.266-.74 5.192-2.345 12.533-7.794 13.61-12.722M235.93 521.29c4.935-2.522 9.663-10.548 15.563-13.892 7.146-2.432 12.243-6.457 15.288-12.075 6.376-3.833 11.112-9.26 14.209-16.28 5.694-.946 12.159-4.072 15.052-10.178"
              transform="translate(.074) translate(-503.78 -4.888) scale(1.1221) matrix(1.0205 0 0 -1.0205 594.76 576.21)"
            ></path>
            <path
              d="M301.4 420.29c-9.01 1.167-16.849-1.463-23.4-8.263-7.197-.261-13.83-3.263-20.207-7.509-6.7-2.302-13.027-5.531-19.728-9.428M306.51 443.08c-10.321 1.018-20.897-.454-32.039-7.405-5.213-1.929-10.427-5.052-15.64-9.372-6.602-2.339-12.077-6.32-17.039-11.05-7.105-1.612-19.697-6.481-20.139-11.117-2.104-.717-5.554-5.694-5.36-6.498M296.13 468.95c-6.23-2.033-7.972-7.219-12.095-12.95-1.248.702-2.403.69-3.742.895-5.422.827-11.8-1.971-19.486-9.35-6.675-2.157-12.865-5.734-18.72-10.283-7.526-2.185-12.284-4.669-18.888-9.245-8.24-1.241-15.66-4.873-22.259-10.896M285.55 485.73c-2.807-1.816-4.214-4.074-4.561-6.687-6.522-1.068-12.633-3.728-18.334-7.983-7.193-1.478-13.617-3.952-18.349-8.618-8.597-1.901-15.144-5.395-19.64-10.482-7.933 1.044-15.867-1.15-23.801-10.464M275.11 504.57c-2.774-3.01-4.626-6.83-8.322-9.242-7.3-2.184-13.984-4.667-20.053-9.24-5.33-3.433-12.156-6.433-15.95-10.762-1.15.004-2.502.35-3.63.278-7.89-.503-14.928-3.303-20.815-8.64M263.42 521.91c-3.253-.877-4.508-12.361-11.921-14.509-12.536-4.091-18.92-6.589-19.155-11.079-5.177-3.146-14.353-3.006-18.3-7.647"
              transform="translate(.074) translate(-503.78 -4.888) scale(1.1221) matrix(1.0205 0 0 -1.0205 594.76 576.21)"
            ></path>
          </g>
          <path
            strokeWidth="0.891"
            d="M849.4 34.096c5.335 2.845 6.905 5.08 2.825 14.023m41.428 41.461c-.032-2.642 1.618-5.62-3.139-7.317m-13.496-18.292c5.336 2.845 6.905 5.081 2.825 14.024M822.095 67.02c-1.277-2.988-4.785-4.892-7.847-7.012v0m20.4 21.34c-1.277-6.24-5.099-2.927-8.16-3.963m-11.613 10.67c-1.276-2.988-4.785-4.892-7.846-7.012m36.092-14.634c3.662-3.963 7.323-2.133 10.043 3.66m11.927-21.036c5.336 2.845 6.905 5.081 2.825 14.023m-38.29-16.767c5.336 2.845 6.905 5.081 2.825 14.023m37.034 24.083c-1.277-6.24-5.099-2.927-8.16-3.963m17.078 14.633c3.662-3.963 7.323-2.134 10.043 3.658m-47.52-10.975c3.66-3.963 7.322-2.134 10.042 3.658M821.466 97.2c3.662-3.964 7.323-2.135 10.043 3.658m25.422 2.134c3.662-3.964 7.323-2.134 10.043 3.658m28.561-1.525c3.662-3.963 7.323-2.134 10.043 3.659m-33.269 8.84c3.662-3.962 7.323-2.133 10.043 3.66m10.358 8.535c3.662-3.963 7.323-2.134 10.043 3.659m-49.274-6.403c3.662-3.963 7.323-2.134 10.043 3.659m-45.508-9.45c3.662-3.964 7.323-2.135 10.043 3.657m8.474-11.889c3.662-3.963 7.323-2.134 10.043 3.659m-39.23-4.574c-1.278-2.988-4.786-4.891-7.847-7.011v0m72.812 35.364c3.662-3.964 7.323-2.135 10.043 3.658m-76.265-5.792c-1.277-2.988-4.785-4.892-7.846-7.012v0m37.662 5.792c3.661-3.963 7.323-2.134 10.043 3.659"
            transform="translate(.074) translate(-503.78 -4.888) scale(1.1221)"
          ></path>
        </g>
        <g>
          <path
            d="M850.62 27.719c-8.603 2.858-13.604 8.453-15 16.562-9.882-5.616-14.021.539-15.531 12-11.186-1.275-13.323 5.641-10.281 18.188-14.307 1.637-17.593 9.48-11.812 22.5-12.456 5.338-15.066 13.968-3.25 27.438-11.751 10.74-10.124 19.449 4.906 26.125-4.46 13.29 1.305 19.717 16.094 20 1.754 11.669 7.364 13.847 27.531 9.969.843.941 1.384 2.653 1.764 4.69.682 3.648.847 8.337 1.299 11.498-.385 7.597-.058 21.658-.344 35.938-3.489-4.595-10.835-4.893-12.844-10.97-29.017-46.04-61.414-70.441-82-95.311-2.926 6.799 38.534 41.152 70.312 83.594-30.104-31.917-61.944-56.613-82.375-76.97-1.03 7.579 44.174 42.295 78.844 77.5-31.895-26.47-65.787-51.446-87.375-69.78-.935 8.611 52.826 44.162 91.75 78.594-37.64-25.42-72.487-49.167-97.75-67.531 2.126 8.702 54.022 41.165 93.969 69.156-41.834-18.41-72.18-42.251-97.938-58.906 2.763 9.785 54.168 43.2 102.84 65.406 8.857 3.09 16.58 6.673 22.5 12.625-.24 29.228-.343 44.605 1.156 46.312 3.783-3.03 11.055 2.123 13.97-1.469-1.212-1.338-1.738-8.938-2.032-24.5l.094 1c7.734-5.376 12.96-13.573 22.094-19.344 3.4-2.198 6.69-4.428 9.844-6.656 35.344-24.964 57.674-51.33 76.875-68.72-6.09-3.223-38.1 35.096-77.875 64.939 29.907-28.262 52.646-57.07 71.719-76.25-5.073-2.818-39.575 40.109-72.562 72.656 24.797-29.938 48.106-60.361 65.28-80.625-6.04-2.085-43.356 49.259-73.624 86.125 23.807-35.324 46.112-68.01 63.312-91.72-6.126-1.91-39.955 50.005-64.844 88.157 16.926-33.575 39.558-67.681 55.156-91.875-5.783-.59-36.602 46.603-55.562 84.562-4.591 5.034-3.761 12.736-7.22 17.938-2.106 3.272-5.989 9.416-12.78 13.344-.065-4.7-.11-9.442-.157-15.375-.14-21.032.579-26.497.438-41.812-.102-3.571-.288-5.91-.515-7.535-.424-3.028-.992-3.575-1.423-4.997 4.52-2.68 7.756-7.18 13.531-8.03 3.791 2.48 8.823 4.111 15.125 4.968 1.646-6.36-1.18-11.673 4.594-15.594 10.993.827 14.86-5.194 11.625-18.188 16.333-11.413 14.868-18.343 5.25-23.25 9.39-18.708 4.349-26.366-10.53-26.375 5.22-15.882 1.697-21.568-10.657-17.125 3.084-15.292-.568-21.687-10.875-19.094 2.584-13.19-3.368-15.337-11.75-17.875-3.88-7.464-8.253-12.507-12.969-15.906z"
            transform="translate(.074) translate(-647.43 253.84) scale(1.1221)"
          ></path>
          <g strokeWidth="1.397">
            <path
              d="M200.27 416.76c5.907 1.342 13.045-2.893 21.414-12.706 10.502-4.367 20.469-9.797 21.787-16.111.056-.347.052-.283.257-.026 3.413 4.07 16.424-.924 13.47-3.708M195.66 443.04c9.426-2.141 17.724-7.569 25.51-14.491 7.796-1.743 14.464-6.774 20.619-13.299 6.105-2.832 11.543-6.311 16.008-10.737 4.405-3.937 8.81-8.123 13.215-12.858M199.24 469.63c9.39-1.66 17.254-9.774 23.11-17.231 8.49-1.291 14.528-6.672 19.739-15.134 6.189-2.642 11.967-6.478 17.336-11.51 6.305-3.355 13.461-7.85 18.127-13.595 7.861-.914 11.092-3.352 12.393-9.843M210.7 491.73c5.22-4.07 11.97-10.454 16.37-16.117 1.221-.007 2.584-.23 3.79-.352 4.855-.49 10.258-5.216 13.448-12.82 6.32-3.373 11.818-8.34 16.498-14.898 5.477-2.612 9.825-6.867 13.661-11.87 9.818-5.41 19.797-9.134 26.794-15.431M220.68 509.58c3.67-.507 8.31-7.367 11.66-13.26 6.01-2.006 11.022-5.308 14.573-10.502 6.042-3.375 11.341-8.194 15.744-14.757 12.811-3.677 13.905-11.306 17.856-14.181 1.034-.058 1.887-.225 3.266-.74 5.192-2.345 12.533-7.794 13.61-12.722M235.93 521.29c4.935-2.522 9.663-10.548 15.563-13.892 7.146-2.432 12.243-6.457 15.288-12.075 6.376-3.833 11.112-9.26 14.209-16.28 5.694-.946 12.159-4.072 15.052-10.178"
              transform="translate(.074) translate(-647.43 253.84) scale(1.1221) matrix(1.0205 0 0 -1.0205 594.76 576.21)"
            ></path>
            <path
              d="M301.4 420.29c-9.01 1.167-16.849-1.463-23.4-8.263-7.197-.261-13.83-3.263-20.207-7.509-6.7-2.302-13.027-5.531-19.728-9.428M306.51 443.08c-10.321 1.018-20.897-.454-32.039-7.405-5.213-1.929-10.427-5.052-15.64-9.372-6.602-2.339-12.077-6.32-17.039-11.05-7.105-1.612-19.697-6.481-20.139-11.117-2.104-.717-5.554-5.694-5.36-6.498M296.13 468.95c-6.23-2.033-7.972-7.219-12.095-12.95-1.248.702-2.403.69-3.742.895-5.422.827-11.8-1.971-19.486-9.35-6.675-2.157-12.865-5.734-18.72-10.283-7.526-2.185-12.284-4.669-18.888-9.245-8.24-1.241-15.66-4.873-22.259-10.896M285.55 485.73c-2.807-1.816-4.214-4.074-4.561-6.687-6.522-1.068-12.633-3.728-18.334-7.983-7.193-1.478-13.617-3.952-18.349-8.618-8.597-1.901-15.144-5.395-19.64-10.482-7.933 1.044-15.867-1.15-23.801-10.464M275.11 504.57c-2.774-3.01-4.626-6.83-8.322-9.242-7.3-2.184-13.984-4.667-20.053-9.24-5.33-3.433-12.156-6.433-15.95-10.762-1.15.004-2.502.35-3.63.278-7.89-.503-14.928-3.303-20.815-8.64M263.42 521.91c-3.253-.877-4.508-12.361-11.921-14.509-12.536-4.091-18.92-6.589-19.155-11.079-5.177-3.146-14.353-3.006-18.3-7.647"
              transform="translate(.074) translate(-647.43 253.84) scale(1.1221) matrix(1.0205 0 0 -1.0205 594.76 576.21)"
            ></path>
          </g>
          <path
            strokeWidth="0.891"
            d="M849.4 34.096c5.335 2.845 6.905 5.08 2.825 14.023m41.428 41.461c-.032-2.642 1.618-5.62-3.139-7.317m-13.496-18.292c5.336 2.845 6.905 5.081 2.825 14.024M822.095 67.02c-1.277-2.988-4.785-4.892-7.847-7.012v0m20.4 21.34c-1.277-6.24-5.099-2.927-8.16-3.963m-11.613 10.67c-1.276-2.988-4.785-4.892-7.846-7.012m36.092-14.634c3.662-3.963 7.323-2.133 10.043 3.66m11.927-21.036c5.336 2.845 6.905 5.081 2.825 14.023m-38.29-16.767c5.336 2.845 6.905 5.081 2.825 14.023m37.034 24.083c-1.277-6.24-5.099-2.927-8.16-3.963m17.078 14.633c3.662-3.963 7.323-2.134 10.043 3.658m-47.52-10.975c3.66-3.963 7.322-2.134 10.042 3.658M821.466 97.2c3.662-3.964 7.323-2.135 10.043 3.658m25.422 2.134c3.662-3.964 7.323-2.134 10.043 3.658m28.561-1.525c3.662-3.963 7.323-2.134 10.043 3.659m-33.269 8.84c3.662-3.962 7.323-2.133 10.043 3.66m10.358 8.535c3.662-3.963 7.323-2.134 10.043 3.659m-49.274-6.403c3.662-3.963 7.323-2.134 10.043 3.659m-45.508-9.45c3.662-3.964 7.323-2.135 10.043 3.657m8.474-11.889c3.662-3.963 7.323-2.134 10.043 3.659m-39.23-4.574c-1.278-2.988-4.786-4.891-7.847-7.011v0m72.812 35.364c3.662-3.964 7.323-2.135 10.043 3.658m-76.265-5.792c-1.277-2.988-4.785-4.892-7.846-7.012v0m37.662 5.792c3.661-3.963 7.323-2.134 10.043 3.659"
            transform="translate(.074) translate(-647.43 253.84) scale(1.1221)"
          ></path>
        </g>
      </g>
      <path
        fill="url(#a)"
        fillRule="evenodd"
        d="M300 658.5s298.5-112.32 298.5-397.77V2.18H1.5v258.55C1.5 546.18 300 658.5 300 658.5z"
      ></path>
      <path
        fill="none"
        stroke="#000"
        strokeWidth="3"
        d="M300 658.5S1.5 546.18 1.5 260.73V2.18h597v258.55C598.5 546.18 300 658.5 300 658.5z"
      ></path>
    </svg>