<svg xmlns="http://www.w3.org/2000/svg" viewBox="0 0 290 143.75">
      <defs>
        <clipPath id="a">
          <path d="M882.43 872.85V410.39c0-57.52 112.76-87.032 139.49-89.329 42.84-3.667 111.35 6.133 129.71-25.679 18.37 31.812 86.87 22.012 129.7 25.679 26.74 2.297 139.49 31.809 139.49 89.329v462.46H882.43z"></path>
        </clipPath>
      </defs>
      <path
        fill="#231f20"
        d="M897.6 1136.6c7.855.42 20.554 1.04 27.468-.2 14.004-2.49 20.559-11.84 20.559-26.16 0-16.19-10.277-26.57-23.926-29.69-9.527-2.07-21.484-1.24-24.101-1.04v57.09zm-16.442-134.3c2.621.19 5.422.61 8.231.61 2.605 0 5.226-.42 8.211-.61v69.32h7.105l14.942-19.5 22.054-31.77c3.926-5.82 7.66-11.63 11.774-18.05 3.367.19 7.093.61 10.644.61s6.914-.42 10.832-.61l-3.543 5.18-8.965 11.62-38.5 54.18c18.879 3.75 38.309 15.37 38.309 39.45 0 20.96-12.707 31.55-41.473 31.55h-39.621V1002.3M1003.2 1060.2c1.12 17.44 8.78 36.11 26.34 36.11 18.5 0 22.99-18.06 23.36-36.11h-49.7zm46.14 73.48c1.7 1.25 3.75 2.29 4.67 4.57 1.13 1.25.75 4.16.2 5.61-.94 3.31-4.49 5.18-7.48 4.36-2.06-.41-3.36-2.49-5.04-3.74-1.49-1.86-3-3.32-4.68-5.18l-23.35-25.96h6.35l29.33 20.34zm13.83-110.02c-5.05-5.4-14.95-14.33-27.66-14.33-22.6 0-34 19.93-32.31 43.19h26.34c12.52 0 25.22-.21 37.93-.63 1.88 34.67-17.19 50.87-37.93 50.87-27.83 0-42.776-22.22-42.776-51.07 0-32.17 18.296-51.08 44.086-51.08 11.4 0 22.98 4.98 32.13 12.25l.19 10.8M1122.7 1004c14.02 0 27.46-1.45 27.46-23.039 0-19.515-16.06-26.566-29.51-26.566-15.51 0-26.92 8.301-26.92 25.129 0 16.808 9.54 24.686 28.97 24.476zm39.62 98.21c-4.49-.84-8.97-1.05-13.46-.42l-25.97 1.04c-27.28 1.03-37.75-12.88-37.75-33.01 0-15.37 6.93-23.88 18.13-29.68-7.29-3.54-12.89-7.89-12.89-17.86 0-12.67 5.97-15.78 11.4-16.81v-1.68c-11.58-2.28-19.44-10.165-19.44-25.114 0-21.793 18.5-30.508 33.83-30.508 28.59 0 47.46 16.598 47.46 40.895 0 17.637-10.28 27.617-32.33 27.617h-11.95c-11.21 0-17.94 1.23-17.94 9.95 0 12.04 11.2 9.97 13.45 9.97 21.67 0 39.8 9.55 39.8 32.19 0 11.62-5.24 20.76-12.89 27.4l20.55-1.88v7.9zm-62.97-32.19c0 15.78 7.66 27.2 21.11 27.2 14.77 0 20-12.24 20-28.24 0-14.11-7.11-27.2-20.74-27.2-13.65 0-20.93 13.51-20.37 28.24M1204.4 1002.3c-2.81.19-5.05.61-7.47.61-2.62 0-5.05-.42-7.49-.61v99.21c2.44-.2 4.87-.61 7.49-.61 2.42 0 4.66.41 7.47.61v-99.21zm-7.47 124.12c-5.23 0-9.54 4.79-9.54 10.6 0 5.82 4.31 10.58 9.54 10.58 5.03 0 9.53-4.76 9.53-10.58 0-5.81-4.5-10.6-9.53-10.6M1278.6 1096.4c20.73 0 27.08-24.49 27.08-43.17 0-16.19-6.91-46.09-28.77-46.09-21.31 0-29.15 22.01-29.15 42.56 0 22 7.1 46.7 30.84 46.7zm-47.27-43.59c-1.69-31.54 18.87-52.11 44.08-52.11 30.83 0 46.71 25.13 46.71 51.5 0 30.92-17.74 50.65-43.34 50.65-26.9 0-47.45-20.14-47.45-50.04M1344.9 1101.6c2.42-.2 4.86-.61 7.47-.61 2.43 0 4.67.41 7.49.61v-18.88c6.53 12.67 16.8 20.14 30.06 20.14 21.68 0 30.09-13.08 30.09-40.48v-59.99c-2.8.19-5.04.61-7.47.61-2.62 0-5.05-.42-7.47-.61v55.21c0 19.31-3.18 34.46-20.75 34.46-19.62 0-24.46-15.99-24.46-41.52v-48.15c-2.82.19-5.06.61-7.49.61-2.61 0-5.05-.42-7.47-.61v99.21M19.055 191.06c5.598.422 18.871.637 26.902-.21 14.758-1.45 21.109-12.688 21.109-26.782 0-18.472-10.836-31.531-29.512-33.632-6.36-.614-13.832-.614-18.5 0v60.624zm0-68.718c4.668 0 16.809-1.446 25.223.422 26.344 5.828 39.98 17.254 39.98 42.363 0 25.086-11.957 34.031-48.199 34.031H2.606V57.168c2.613.215 5.426.605 8.23.605 2.61 0 5.223-.39 8.22-.605v65.176M108.36 156.4c2.434-.211 4.868-.633 7.481-.633 2.426 0 4.664.422 7.472.633v-20.731l.938 2.473c6.156 10.781 14.191 19.492 23.543 19.492 2.602 0 4.102-.18 5.793-1.027l-2.629-17.442c-2.797.86-5.605 3.313-8.773 3.313-4.114 0-9.161-1.641-11.957-5.188-6.536-8.289-6.915-15.156-6.915-26.355V57.173c-2.808.215-5.046.605-7.472.605-2.613 0-5.047-.39-7.481-.605V156.4M211.5 151.21c20.746 0 27.086-24.492 27.086-43.191 0-16.184-6.902-46.086-28.777-46.086-21.297 0-29.133 22.023-29.133 42.558 0 22.012 7.094 46.719 30.824 46.719zm-47.27-43.594c-1.675-31.554 18.872-52.098 44.086-52.098 30.829 0 46.711 25.094 46.711 51.454 0 30.949-17.742 50.656-43.347 50.656-26.899 0-47.45-20.129-47.45-50.012M341.35 156.4c1.871-.211 3.929-.633 5.98-.633 1.867 0 3.731.422 5.984.633-10.089-23.465-28.777-69.137-38.117-99.227-2.05.215-3.922.605-5.605.605-2.047 0-3.922-.39-5.785-.605-6.543 19.707-24.844 70.359-36.633 99.227 2.613-.211 5.43-.633 8.414-.633 2.617 0 5.035.422 8.226.633 5.231-19.305 16.247-50.848 27.833-79.938 1.308 2.098 2.804 3.953 3.55 5.816l11.215 29.29L341.35 156.4M381.53 115.06c1.114 17.48 8.778 36.152 26.34 36.152 18.496 0 22.985-18.086 23.36-36.152h-49.7zm59.965-36.504c-5.039-5.402-14.937-14.344-27.64-14.344-22.614 0-34.008 19.938-32.325 43.172h26.34c12.52 0 25.223-.195 37.934-.613 1.871 34.668-17.196 50.859-37.934 50.859-27.84 0-42.789-22.207-42.789-51.059 0-32.195 18.317-51.05 44.102-51.05 11.394 0 22.984 4.95 32.148 12.234l.164 10.801M468.41 156.4c2.434-.211 4.86-.633 7.477-.633 2.429 0 4.668.422 7.476.633v-18.895c6.528 12.668 16.817 20.129 30.071 20.129 21.683 0 30.082-13.059 30.082-40.473V57.173c-2.797.215-5.039.605-7.465.605-2.625 0-5.051-.39-7.473-.605V112.4c0 19.285-3.187 34.468-20.746 34.468-19.609 0-24.469-16.011-24.469-41.543V57.173c-2.808.215-5.047.605-7.476.605-2.617 0-5.043-.39-7.477-.605V156.4M641.05 135.42h-1.496c-1.492 2.273-2.992 4.969-5.039 6.863-4.301 5.41-12.145 8.281-18.5 8.281-21.676 0-32.133-20.742-32.133-42.546 0-26.575 13.637-45.454 34.004-45.454 10.828 0 17.933 5.598 25.785 13.496l1.113-.633-.929-9.539c-8.418-6.848-18.309-10.37-28.582-10.37-31.204 0-47.836 22.401-47.836 51.453 0 32.187 20.55 50.656 48.382 50.656 10.649 0 20.372-2.258 29.532-8.488l-4.301-13.719M677.86 115.06c1.129 17.48 8.778 36.152 26.344 36.152 18.496 0 22.989-18.086 23.36-36.152H677.86zm59.981-36.504c-5.047-5.402-14.961-14.344-27.648-14.344-22.614 0-34.016 19.938-32.333 43.172h26.344c12.516 0 25.227-.195 37.934-.613 1.859 34.668-17.195 50.859-37.934 50.859-27.844 0-42.789-22.207-42.789-51.059 0-32.195 18.32-51.05 44.094-51.05 11.394 0 22.988 4.95 32.148 12.234l.184 10.801M758.01 97.234h46.719v12.863H758.01V97.234zM894.04 121.93h-41.105l20.359 53.152 20.746-53.152zm-14.023 80.34h-4.293l-58.297-145.1c2.051.215 4.113.605 6.539.605 2.246 0 4.293-.39 6.918-.605 5.226 19.48 11.961 37.773 18.492 56.055h47.449c7.488-18.899 14.211-38.848 19.625-56.055 3.18.215 6.36.605 9.899.605 3.183 0 6.172-.39 9.711-.605l-56.043 145.1M959.43 213.07c2.426-.195 4.855-.605 7.469-.605 2.429 0 4.687.41 7.48.605V57.17c-2.793.215-5.051.605-7.48.605-2.614 0-5.043-.39-7.469-.605v155.9M1022 104.08c0 19.309 5.61 46.484 27.28 46.484 20.17 0 25.78-20.937 25.78-41.277 0-24.082-6.72-45.078-25.6-45.078-19.05 0-27.46 17.664-27.46 39.871zm0-28.652h.37c6.17-12.863 15.32-19.91 28.77-19.91 23.92 0 40.36 20.543 40.36 54.578 0 24.929-13.45 47.531-37.56 47.531-22.6 0-28.4-15.156-31.57-22.207h-.37v20.973c-2.8-.211-5.05-.633-7.48-.633-2.61 0-5.04.422-7.47.633V4.033c2.43.2 4.86.598 7.47.598 2.43 0 4.68-.399 7.48-.598v71.398M1123.3 115.06c1.11 17.48 8.78 36.152 26.35 36.152 18.48 0 22.98-18.086 23.35-36.152h-49.7zm59.97-36.504c-5.05-5.402-14.95-14.344-27.65-14.344-22.6 0-34.01 19.938-32.32 43.172h26.35c12.52 0 25.22-.195 37.91-.613 1.88 34.668-17.17 50.859-37.91 50.859-27.85 0-42.79-22.207-42.79-51.059 0-32.195 18.31-51.05 44.08-51.05 11.41 0 23 4.95 32.14 12.234l.19 10.801M1209 77.285c4.48-8.098 12.72-15.352 21.49-15.352 9.17 0 18.31 7.89 18.31 18.898 0 28.016-44.08 9.754-44.08 46.082 0 19.949 13.62 30.715 30.45 30.715 9.71 0 17.74-3.109 21.11-5.402a100.912 100.912 0 01-4.48-14.727h-1.69c-2.42 6.848-8.96 13.711-15.88 13.711-9.34 0-17-6.035-17-17.234 0-26.594 44.09-12.461 44.09-45.684 0-22.207-17.94-32.774-34.37-32.774-7.67 0-16.82 2.254-23.36 6.629 1.49 4.973 3.18 9.953 3.92 15.137h1.49M1278 97.234h46.703v12.863H1278V97.234zM1448.6 66.484c-11.77-8.711-27.09-11.816-41.28-11.816-41.11 0-65.78 28.848-65.78 74.328 0 46.695 31.02 73.27 70.44 73.27 13.64 0 27.66-3.528 40.18-9.539-1.88-5.2-2.99-10.586-3.93-15.989l-1.31-.215c-2.61 3.743-16.44 17.872-35.68 17.872-34.37 0-51.37-30.95-51.37-66.231 0-39.871 20.54-65.383 50.06-65.383 20.18 0 35.88 13.281 39.6 16.801l-.93-13.098M1514.7 151.21c20.74 0 27.1-24.492 27.1-43.191 0-16.184-6.91-46.086-28.78-46.086-21.3 0-29.14 22.023-29.14 42.558 0 22.012 7.11 46.719 30.82 46.719zm-25.4 17.019l21.86 21.985 21.86-21.985h6.17l-22.99 34.668h-10.27l-22.98-34.668h6.35zm-21.87-60.613c-1.67-31.554 18.87-52.098 44.1-52.098 30.84 0 46.71 25.094 46.71 51.454 0 30.949-17.75 50.656-43.35 50.656-26.9 0-47.46-20.129-47.46-50.012M1595.1 183.39v-26.996h19.8c-.54-2.911-.54-5.829 0-7.887h-19.8V96.405c0-12.668-1.68-33.625 13.83-33.625 2.79 0 5.6.832 8.4 1.43v-4.973c-5.03-2.07-10.28-3.719-15.7-3.719-14.2 0-22.41 7.262-21.46 32.594v60.395h-11.61c.57 2.703.57 5.203 0 7.887h11.61v20.57l14.93 6.426M1643.3 115.06c1.11 17.48 8.77 36.152 26.32 36.152 18.52 0 23-18.086 23.37-36.152h-49.69zm59.96-36.504c-5.05-5.402-14.94-14.344-27.64-14.344-22.62 0-34.02 19.938-32.32 43.172h26.32c12.53 0 25.26-.195 37.93-.613 1.88 34.668-17.19 50.859-37.93 50.859-27.84 0-42.76-22.207-42.76-51.059 0-32.195 18.29-51.05 44.05-51.05 11.43 0 23 4.95 32.15 12.234l.2 10.801M1845.6 109.48c0-19.089-5.79-46.5-27.46-46.5-19.62 0-25.6 22-25.6 39.832 0 21.387 3.96 46.329 27.86 46.329 19.06 0 25.2-22.227 25.2-39.661zm14.96 103.59c-2.81-.195-5.05-.605-7.46-.605-2.62 0-5.03.41-7.5.605v-75.566c-6.52 12.473-16.24 20.129-29.33 20.129-24.64 0-40.18-23.254-40.18-51.906 0-33.821 16.27-50.204 37.39-50.204 13.99 0 24.48 7.047 32.12 21.57V57.171c2.47.215 4.88.605 7.5.605 2.41 0 4.65-.39 7.46-.605v155.9M1907.4 150.57c.75-7.246-.38-12.429-6.15-12.429-5.8 0-7.13 3.914-6.36 12.429v35.098c-.77 11.024.56 16.602 6.36 16.602 5.77 0 6.9-5.578 6.15-16.602V150.57M2008.7 121.93h-41.11l20.38 53.152 20.73-53.152zm-14 80.34h-4.3l-58.29-145.1c2.05.215 4.09.605 6.54.605 2.24 0 4.3-.39 6.9-.605 5.23 19.48 11.94 37.773 18.49 56.055h47.47c7.47-18.899 14.19-38.848 19.61-56.055 3.18.215 6.35.605 9.91.605 3.19 0 6.16-.39 9.7-.605l-56.03 145.1M2082.7 66.086v-.637c18.86 0 37.91 1.672 56.79 3.137-.17-2.102-.56-3.742-.56-5.41 0-1.875.39-3.742.56-5.403h-79.76v1.883c18.66 25.551 46.31 67.063 59.6 87.602v.633c-16.66 0-33.48-1.66-50.1-3.106.17 1.445.56 3.301.56 5.188 0 1.636-.39 3.32-.56 5.398h71.57v-1.887l-58.1-87.398M2239.3 57.168c-2.79.215-5.04.605-7.48.605-2.61 0-5.02-.39-7.45-.605v17.844c-6-12.668-16.65-19.492-29.73-19.492-20.56 0-30.81 11.816-30.81 39.832v61.043c2.41-.211 4.83-.633 7.44-.633 2.47 0 4.71.422 7.5.633v-56.051c0-21.789 5.78-34.668 22.6-34.668 19.05 0 23 18.68 23 33.418v57.301c2.43-.211 4.84-.633 7.45-.633 2.44 0 4.69.422 7.48.633V57.168M2271.4 156.4c2.43-.211 4.84-.633 7.48-.633 2.43 0 4.66.422 7.46.633v-20.731l.93 2.473c6.18 10.781 14.2 19.492 23.56 19.492 2.6 0 4.12-.18 5.78-1.027l-2.61-17.442c-2.81.86-5.6 3.313-8.78 3.313-4.13 0-9.14-1.641-11.96-5.188-6.55-8.289-6.92-15.156-6.92-26.355V57.173c-2.8.215-5.03.605-7.46.605-2.64 0-5.05-.39-7.48-.605V156.4"
        transform="matrix(1.25 0 0 -1.25 0 143.75) scale(.1)"
      ></path>
      <g
        clipPath="url(#a)"
        transform="matrix(1.25 0 0 -1.25 0 143.75) scale(.1)"
      >
        <path
          fill="#f9a70c"
          d="M862.78 281.23h574.76v661.16H862.78V281.23z"
        ></path>
        <path
          fill="#fff"
          d="M1435.1 281.12v328.42l-283.82.027v-328.42l283.82-.02"
        ></path>
        <path
          fill="#ed1c24"
          d="M911.9 281.23h29.52v661.09H911.9V281.23zM971.78 281.23h29.516v661.09H971.78V281.23zM1031.7 281.23h29.516v661.18H1031.7V281.23zM1091.5 281.13h29.523v661.28H1091.5V281.13z"
        ></path>
        <path
          fill="none"
          stroke="#231f20"
          strokeWidth="3.448"
          d="M1151 272.22V919.1M1151.3 609.57h283.82"
        ></path>
        <path
          fill="#231f20"
          d="M1366.5 385.35c-4.68 36.015-19.86 58.359-37 58.359-17.37 0-32.45-26.133-36.79-64.055"
        ></path>
        <path
          fill="none"
          stroke="#fff"
          strokeWidth="0.182"
          d="M1366.5 385.35c-4.68 36.015-19.86 58.359-37 58.359-17.37 0-32.45-26.133-36.79-64.055"
        ></path>
        <path
          fill="#231f20"
          d="M1272.8 379.32c-3.77 39.289-19.62 63.965-37.64 63.965-16.63 0-31.14-23.945-36.17-59.219"
        ></path>
        <path
          fill="none"
          stroke="#fff"
          strokeWidth="0.182"
          d="M1272.8 379.32c-3.77 39.289-19.62 63.965-37.64 63.965-16.63 0-31.14-23.945-36.17-59.219"
        ></path>
        <path
          fill="#231f20"
          d="M1315.8 382.84c-6.64 25.75-19.51 41.101-33.71 41.101-14 0-26.54-17.004-33.13-43.496"
        ></path>
        <path
          fill="none"
          stroke="#fff"
          strokeWidth="0.455"
          d="M1315.8 382.84c-6.64 25.75-19.51 41.101-33.71 41.101-14 0-26.54-17.004-33.13-43.496"
        ></path>
        <path
          fill="#ed1c24"
          d="M1270.8 557.01l-1.55.554h-4.15l-1.23-.359-1.08-.566-1.23-.567-1.25-.183-1.39.183-1.39.196-1.39.546-1.08.75-1.08 1.106-.62 1.855-.15 1.297-.16 1.125-.62.371-.77-.566v-1.484l.16-1.668.61-2.036.62-1.492.93-.929.93-.907 1.23-.566 1.54-.188 1.39.188h1.24l1.25.566 1.52.364 2.02.543h1.85l1.39-.172 1.39-.539 1.07-.579 1.4-.925 1.08-.742 1.24-.184.3 1.297-.45 1.672-.78 1.101-.78.567-.76.754-1.25-.383"
        ></path>
        <path
          fill="none"
          stroke="#231f20"
          strokeWidth="0.601"
          d="M1270.8 557.01l-1.55.554h-4.15l-1.23-.359-1.08-.566-1.23-.567-1.25-.183-1.39.183-1.39.196-1.39.546-1.08.75-1.08 1.106-.62 1.855-.15 1.297-.16 1.125-.62.371-.77-.566v-1.484l.16-1.668.61-2.036.62-1.492.93-.929.93-.907 1.23-.566 1.54-.188 1.39.188h1.24l1.25.566 1.52.364 2.02.543h1.85l1.39-.172 1.39-.539 1.07-.579 1.4-.925 1.08-.742 1.24-.184.3 1.297-.45 1.672-.78 1.101-.78.567-.76.754-1.25-.383z"
        ></path>
        <path
          fill="#ed1c24"
          d="M1273.5 551.19l-1.85.254-2.29.996-3.07.489-2.27-.254-2.48-.988-2.03-1.473 1.21.246 1.66.254h2.06l2.46-.5 2.28-.996 1.64-.977 1.44-.754 9.66 1.301-.49 7.637-5.41 5.554-3.66.364-.96 5.926-2.65-.77-1.42 1.73-1.86.997-1.65.253-2.36-.5-1.85-1.113-1.76-1.609-1.04-1.477-.82-2.715.43-2.976.82-2.207.81 1.472 1.04.997 1.63.5 2.06-.254 2.48-.508 2.48-.981 2.47-1.504 1.64-1.472 1.45-1.453.62-2.004-.42-1.485"
        ></path>
        <path
          fill="none"
          stroke="#231f20"
          strokeWidth="0.601"
          d="M1273.5 551.19l-1.85.254-2.29.996-3.07.489-2.27-.254-2.48-.988-2.03-1.473 1.21.246 1.66.254h2.06l2.46-.5 2.28-.996 1.64-.977 1.44-.754 9.66 1.301-.49 7.637-5.41 5.554-3.66.364-.96 5.926-2.65-.77-1.42 1.73-1.86.997-1.65.253-2.36-.5-1.85-1.113-1.76-1.609-1.04-1.477-.82-2.715.43-2.976.82-2.207.81 1.472 1.04.997 1.63.5 2.06-.254 2.48-.508 2.48-.981 2.47-1.504 1.64-1.472 1.45-1.453.62-2.004-.42-1.485"
        ></path>
        <path
          fill="#ed1c24"
          d="M1299 580.16l-5.69-7.285 1.47 10.652-4.83-8.992 1.06 10.852-4.38-9.641.37 10.988-3.65-9.484-.11 10.574-3.35-9.656-.31 10.352-3.09-9.911-.21-.273-.85 10.75-2.51-10.312-1.54 10.285-2.07-10.879-2.91 9.668.65-10.532.05-.066-.05-3.711-.06-2.031s-.01-.008-.03-.02l.02-.007-.04-1.582c-.11-.305 4.19-.098 3.98-.161l17.77-4.734c.96-.789 4.56-.781 4.42-1.426l.7 2.656c-.01-.039 0-.058 0-.078l.99 3.907h.04c0 .031-.03.046-.03.086l.16.609 4.03 9.402"
        ></path>
        <path
          fill="none"
          stroke="#231f20"
          strokeWidth="0.601"
          d="M1299 580.16l-5.69-7.285 1.47 10.652-4.83-8.992 1.06 10.852-4.38-9.641.37 10.988-3.65-9.484-.11 10.574-3.35-9.656-.31 10.352-3.09-9.911-.21-.273-.85 10.75-2.51-10.312-1.54 10.285-2.07-10.879-2.91 9.668.65-10.532.05-.066-.05-3.711-.06-2.031s-.01-.008-.03-.02l.02-.007-.04-1.582c-.11-.305 4.19-.098 3.98-.161l17.77-4.734c.96-.789 4.56-.781 4.42-1.426l.7 2.656c-.01-.039 0-.058 0-.078l.99 3.907h.04c0 .031-.03.046-.03.086l.16.609 4.03 9.402z"
        ></path>
        <path
          fill="#104680"
          d="M1371.9 383.16v2.207c-5.27 1.125-7.25 4.258-7.45 7.981-.22-3.606-3.81-6.614-8.81-7.825l-9.26-.058c-5.28 1.203-9.08 4.406-9.08 8.183l-.09-.129c0-3.75-3.7-6.929-8.89-8.152l-9.15-.039c-5.32 1.184-9.12 4.387-9.12 8.191h-.25c0-3.914-4.04-7.234-9.6-8.316l-7.72-.039c-5.52 1.004-9.59 4.168-9.82 7.984-.14-3.816-4.11-7.019-9.55-8.101l-7.8-.031c-5.39.988-9.38 4.042-9.77 7.726-.28-3.613-4.05-6.66-9.19-7.797h-8.74c-5.16 1.137-8.94 4.199-9.18 7.844-.43-3.867-4.82-7.012-10.57-7.844h-5.95c-5.81.832-10.21 4.074-10.58 7.973-.39-3.703-3.36-6.758-8.74-7.754v-17.492H1371.9v15.488"
        ></path>
        <path
          fill="none"
          stroke="#231f20"
          strokeWidth="1.264"
          d="M1371.9 383.16v2.207c-5.27 1.125-7.25 4.258-7.45 7.981-.22-3.606-3.81-6.614-8.81-7.825l-9.26-.058c-5.28 1.203-9.08 4.406-9.08 8.183l-.09-.129c0-3.75-3.7-6.929-8.89-8.152l-9.15-.039c-5.32 1.184-9.12 4.387-9.12 8.191h-.25c0-3.914-4.04-7.234-9.6-8.316l-7.72-.039c-5.52 1.004-9.59 4.168-9.82 7.984-.14-3.816-4.11-7.019-9.55-8.101l-7.8-.031c-5.39.988-9.38 4.042-9.77 7.726-.28-3.613-4.05-6.66-9.19-7.797h-8.74c-5.16 1.137-8.94 4.199-9.18 7.844-.43-3.867-4.82-7.012-10.57-7.844h-5.95c-5.81.832-10.21 4.074-10.58 7.973-.39-3.703-3.36-6.758-8.74-7.754v-17.492H1371.9v15.488z"
        ></path>
        <path
          fill="#ed1c24"
          d="M1267.2 500.57l-6.08 5.996v.063h-.06l-1.52 1.512.23-1.165-3.62.93 2.8 7.246-14.84 3.789-15.49 6.004-7.73 11.848-11.05-.469-2.51-11.008-1.06-3.258-3.01-.402.07-8.508-2.62-8.007v-6.61l-.44-5.176v-5.671l.86-4.25-.86-5.176.44-6.133-.44-5.664.44-5.664.85-5.188 1.7-3.308v-4.231l.85-5.672.42-4.714 1.28-4.708.86-4.718 1.69 1.418.44 4.226v14.649l.43 8.476 2.56-.969 1.28 4.27v3.301l1.69-.957 1.69 2.851.49 3.223 1.23-1.348 2.12 1.887 1.26 4.727 1.3-.95 2.56 1.883 1.27 4.262.02.281.63-.437 2.23.359-.33-3.523 1.7-2.344 2.13.469 1.71-2.356 2.55-.957.47 1.555.82-2.492 2.12-1.426 2.97.476 3.42-.933 1.27 3.777v5.645l-.43 5.664-.26 1.418h.77l-.21-2.715 1.71-2.824 2.12.578 1.71-2.856 2.55-1.121.86 3.399.42 6.789v3.836l.83-4.043 2.12-1.914 1.27 4.265v6.606l-.2 3.328 2.58-12.695 2.13-1.883 1.27 4.238v6.602l-.43 6.597"
        ></path>
        <path
          fill="none"
          stroke="#231f20"
          strokeWidth="0.601"
          d="M1267.2 500.57l-6.08 5.996v.063h-.06l-1.52 1.512.23-1.165-3.62.93 2.8 7.246-14.84 3.789-15.49 6.004-7.73 11.848-11.05-.469-2.51-11.008-1.06-3.258-3.01-.402.07-8.508-2.62-8.007v-6.61l-.44-5.176v-5.671l.86-4.25-.86-5.176.44-6.133-.44-5.664.44-5.664.85-5.188 1.7-3.308v-4.231l.85-5.672.42-4.714 1.28-4.708.86-4.718 1.69 1.418.44 4.226v14.649l.43 8.476 2.56-.969 1.28 4.27v3.301l1.69-.957 1.69 2.851.49 3.223 1.23-1.348 2.12 1.887 1.26 4.727 1.3-.95 2.56 1.883 1.27 4.262.02.281.63-.437 2.23.359-.33-3.523 1.7-2.344 2.13.469 1.71-2.356 2.55-.957.47 1.555.82-2.492 2.12-1.426 2.97.476 3.42-.933 1.27 3.777v5.645l-.43 5.664-.26 1.418h.77l-.21-2.715 1.71-2.824 2.12.578 1.71-2.856 2.55-1.121.86 3.399.42 6.789v3.836l.83-4.043 2.12-1.914 1.27 4.265v6.606l-.2 3.328 2.58-12.695 2.13-1.883 1.27 4.238v6.602l-.43 6.597z"
        ></path>
        <path
          fill="#ed1c24"
          d="M1370.6 491.32l-.43 5.2v6.589l-2.34 7.161c-.08.769-.19 1.55-.28 2.312l.08 7.043-1.38.176c-1.26 5.41-2.87 9.598-4.02 11.211-2.52 3.574-15.98-2.738-20.62-3.371s-11.59-1.883-11.59-1.883-1.47-6.32-8.02-8.859c-6.53-2.508-14.94-1.68-14.94-1.68l-2.63-10.07-5.62-5.516-.41-6.609v-6.614l1.28-4.238 2.12 1.902 1.43 7.043v-5.761l1.29-4.247 2.12 1.883 2.6 12.813-.22-3.457v-6.59l1.28-4.258 2.12 1.895.82 4.254v-4.032l.42-6.789.87-3.386 2.55 1.105 1.69 2.84 2.14-.559 1.7 2.805-.21 2.734h.78l-.29-1.425-.41-5.657v-5.66l1.27-3.762 3.4.938 2.99-.469 2.13 1.406.82 2.481.46-1.543 2.54.949 1.7 2.371 2.15-.476 1.7 2.363-.31 3.504 2.22-.371.63.437.02-.293 1.27-4.234 2.56-1.887 1.27.957 1.29-4.734 2.12-1.875 1.21 1.328.49-3.215 1.7-2.844 1.72.95v-3.29l1.25-4.242 2.58.93.41-8.496v-14.617l.43-4.242 1.7-1.434.86 4.734 1.27 4.719.43 4.719.87 5.652v4.258l1.68 3.301.86 5.176.43 5.664-.43 5.671.43 6.125-.87 5.188.87 4.246v5.652"
        ></path>
        <path
          fill="none"
          stroke="#231f20"
          strokeWidth="0.601"
          d="M1370.6 491.32l-.43 5.2v6.589l-2.34 7.161c-.08.769-.19 1.55-.28 2.312l.08 7.043-1.38.176c-1.26 5.41-2.87 9.598-4.02 11.211-2.52 3.574-15.98-2.738-20.62-3.371s-11.59-1.883-11.59-1.883-1.47-6.32-8.02-8.859c-6.53-2.508-14.94-1.68-14.94-1.68l-2.63-10.07-5.62-5.516-.41-6.609v-6.614l1.28-4.238 2.12 1.902 1.43 7.043v-5.761l1.29-4.247 2.12 1.883 2.6 12.813-.22-3.457v-6.59l1.28-4.258 2.12 1.895.82 4.254v-4.032l.42-6.789.87-3.386 2.55 1.105 1.69 2.84 2.14-.559 1.7 2.805-.21 2.734h.78l-.29-1.425-.41-5.657v-5.66l1.27-3.762 3.4.938 2.99-.469 2.13 1.406.82 2.481.46-1.543 2.54.949 1.7 2.371 2.15-.476 1.7 2.363-.31 3.504 2.22-.371.63.437.02-.293 1.27-4.234 2.56-1.887 1.27.957 1.29-4.734 2.12-1.875 1.21 1.328.49-3.215 1.7-2.844 1.72.95v-3.29l1.25-4.242 2.58.93.41-8.496v-14.617l.43-4.242 1.7-1.434.86 4.734 1.27 4.719.43 4.719.87 5.652v4.258l1.68 3.301.86 5.176.43 5.664-.43 5.671.43 6.125-.87 5.188.87 4.246v5.652z"
        ></path>
        <path
          fill="none"
          stroke="#fff"
          strokeWidth="1.365"
          d="M1329.3 376.32c-3.84 1.536-6.39 4.282-6.39 7.375l-.08-.136c0-4.817-6.09-8.692-13.59-8.692-7.51 0-13.59 3.875-13.59 8.692h-.26c0-4.817-6.08-8.692-13.56-8.692-7.53 0-13.6 3.875-13.6 8.692l.04-.176c0-4.793-6.08-8.684-13.59-8.684-7.49 0-13.58 3.891-13.58 8.684l.08-.164c0-4.817-6.09-8.695-13.6-8.695-7.5 0-13.59 3.878-13.59 8.695l.1.242c0-4.805-6.09-8.672-13.59-8.672s-13.59 3.867-13.59 8.672l.07.098c0-3.035-1.79-5.313-5.5-6.867"
        ></path>
        <path
          fill="none"
          stroke="#fff"
          strokeWidth="1.365"
          d="M1383.6 376.18c-3.84 1.543-6.38 4.246-6.38 7.371l-.1-.157c0-4.793-6.08-8.679-13.59-8.679-7.49 0-13.59 3.886-13.59 8.679h-.24c0-4.793-6.07-8.679-13.6-8.679-7.51 0-13.57 3.886-13.57 8.679l.03-.144c0-4.809-6.07-8.703-13.57-8.703s-13.61 3.894-13.61 8.703l.1-.188c0-4.812-6.09-8.703-13.59-8.703-7.51 0-13.61 3.891-13.61 8.703l.09.235c0-4.785-6.07-8.68-13.59-8.68-7.5 0-13.58 3.895-13.58 8.68l.08.117c0-3.047-1.81-5.313-5.52-6.887"
        ></path>
        <path
          fill="#ed1c24"
          d="M1350 439.56l-.96 1.29-1.07.945-1.39 1.289-1.53.73-1.56.364h-2.15l-.7-.047.23.242 1.72.93 1.83.34c.19.019.34.039.52.07l.11-.039 1.84.742 1.4-.188.92-.75 1.08-.918.46-1.679.49 1.297-.19 2.05-.3 1.661-.62 1.496-1.22 1.289-1.24.933h-.04l-.12.571-1.54 1.472-1.71.176-2.01-.918-1.69-.73-1.7-1.504-1.85-1.477-2.16-1.308-2.02-1.473-2.31-1.113-1.64-.657-2.54.832-2.46.75-2.47 1.114-2.63 1.484-2.16 1.113-2.17 1.289-2.31 2.051-1.85 1.848-1.28 1.48-1.8 2.055-1.71 2.02-2 2.586-6.65 1.679 4.64-11.668 2.01-1.875 2.15-1.277 2.48-2.238 3.24-2.051 2.77-1.278 2.48-.746 2.77-.73 2.02-.379 2.93-1.484 1.23-.547-2.62-.559-1.85-.195-1.86-.176-2.01-.184-1.7-.382-1.54-.918-1.23-1.297-.62-2.207.19-1.262-.03-.051-.46-1.863-.17-1.66.17-1.863.77-1.118.92-1.277 1.25-.383 1.52-.183h1.25l1.08.363-.91.203-1.25.168-.78 1.109-.62 1.118v1.492l.29.664.49-.11 1.07.364.8 1.113.61 1.125.45 1.277.61 1.309 1.4-.371 2.16-.164 2.16.164 1.7.566 1.24.535 1.24 1.125.93-.359 1.23-.766 1.54-.918 1.71-1.121 1.54-1.101 1.24-.942.3-.742-.3-1.094v-1.5l.46-1.281 1.39-.742.28-.086.18-1.035.77-1.477.47-1.484-.31-1.484-.93-.911-1.08-.75-1.86-.183.93-.754 1.55-.176.91.371.94.742 1.24.938.93 1.465.46 1.867.15 2.039-.15 1.66-.38.715.2.203.18 1.68-.32 1.277-1.07.942v1.304l-.63 1.098-.92.945-1.25 1.477-1.53 1.109h.77l1.09.188 1.23.183 1.24.18h2.3l.47-.551-.77-.554.3-1.497.78-1.668 1.23-.742.16-.547.46-1.296v-1.489l-.14-1.472-.63-1.121h.63l1.08.917 1.07 1.317.31 1.277.33 1.508.13 1.648-.23.743.55.566.46 1.484-.31 1.477-.6.937"
        ></path>
        <path
          fill="none"
          stroke="#231f20"
          strokeWidth="0.601"
          d="M1350 439.56l-.96 1.29-1.07.945-1.39 1.289-1.53.73-1.56.364h-2.15l-.7-.047.23.242 1.72.93 1.83.34c.19.019.34.039.52.07l.11-.039 1.84.742 1.4-.188.92-.75 1.08-.918.46-1.679.49 1.297-.19 2.05-.3 1.661-.62 1.496-1.22 1.289-1.24.933h-.04l-.12.571-1.54 1.472-1.71.176-2.01-.918-1.69-.73-1.7-1.504-1.85-1.477-2.16-1.308-2.02-1.473-2.31-1.113-1.64-.657-2.54.832-2.46.75-2.47 1.114-2.63 1.484-2.16 1.113-2.17 1.289-2.31 2.051-1.85 1.848-1.28 1.48-1.8 2.055-1.71 2.02-2 2.586-6.65 1.679 4.64-11.668 2.01-1.875 2.15-1.277 2.48-2.238 3.24-2.051 2.77-1.278 2.48-.746 2.77-.73 2.02-.379 2.93-1.484 1.23-.547-2.62-.559-1.85-.195-1.86-.176-2.01-.184-1.7-.382-1.54-.918-1.23-1.297-.62-2.207.19-1.262-.03-.051-.46-1.863-.17-1.66.17-1.863.77-1.118.92-1.277 1.25-.383 1.52-.183h1.25l1.08.363-.91.203-1.25.168-.78 1.109-.62 1.118v1.492l.29.664.49-.11 1.07.364.8 1.113.61 1.125.45 1.277.61 1.309 1.4-.371 2.16-.164 2.16.164 1.7.566 1.24.535 1.24 1.125.93-.359 1.23-.766 1.54-.918 1.71-1.121 1.54-1.101 1.24-.942.3-.742-.3-1.094v-1.5l.46-1.281 1.39-.742.28-.086.18-1.035.77-1.477.47-1.484-.31-1.484-.93-.911-1.08-.75-1.86-.183.93-.754 1.55-.176.91.371.94.742 1.24.938.93 1.465.46 1.867.15 2.039-.15 1.66-.38.715.2.203.18 1.68-.32 1.277-1.07.942v1.304l-.63 1.098-.92.945-1.25 1.477-1.53 1.109h.77l1.09.188 1.23.183 1.24.18h2.3l.47-.551-.77-.554.3-1.497.78-1.668 1.23-.742.16-.547.46-1.296v-1.489l-.14-1.472-.63-1.121h.63l1.08.917 1.07 1.317.31 1.277.33 1.508.13 1.648-.23.743.55.566.46 1.484-.31 1.477-.6.937z"
        ></path>
        <path
          fill="#ed1c24"
          d="M1265 463.22l-2.01-2.598-1.7-2.039-1.78-2.024-1.29-1.496-1.86-1.851-2.32-2.031-2.16-1.301-2.16-1.121-2.63-1.477-2.47-1.113-2.47-.75-2.54-.832-1.63.644-2.33 1.121-2 1.497-2.15 1.296-1.87 1.457-1.68 1.504-1.71.743-2.02.918-1.69-.176-1.54-1.485-.11-.566h-.05l-1.24-.938-1.23-1.281-.61-1.472-.31-1.68-.16-2.039.47-1.289.44 1.66 1.09.918.94.75 1.39.183 1.85-.73.07.027c.27-.054.53-.105.9-.144l1.5-.274 1.7-.91.22-.254-.69.063h-2.17l-1.53-.383-1.56-.73-1.37-1.301-1.09-.918-.92-1.297-.61-.942-.33-1.472.47-1.492.54-.559-.23-.723.16-1.66.29-1.504.33-1.297 1.08-1.3 1.07-.91h.61l-.61 1.105-.14 1.496v1.484l.46 1.278.14.554 1.25.754.77 1.668.3 1.477-.78.559.48.542h2.32l1.23-.191 1.24-.168 1.07-.183h.77l-1.54-1.106-1.23-1.504-.92-.906-.62-1.113v-1.301l-1.1-.938-.29-1.297.14-1.664.23-.203-.37-.715-.16-1.675.16-2.043.45-1.856.94-1.484 1.23-.918.92-.735.94-.371 1.53.188.94.742-1.86.176-1.08.742-.93.918-.31 1.477.48 1.492.76 1.496.19.996.28.105 1.37.75.49 1.282v1.504l-.33 1.093.33.735 1.23.945 1.53 1.113 1.71 1.106 1.55.933 1.22.735.93.371 1.24-1.106 1.24-.574 1.7-.547 2.15-.175 2.18.175 1.37.371.63-1.289.46-1.289.62-1.133.77-1.101 1.07-.363.5.086.28-.665v-1.472l-.61-1.113-.77-1.102-1.24-.195-.92-.176 1.07-.395h1.24l1.54.2 1.24.371.93 1.297.76 1.113.15 1.847-.15 1.668-.46 1.868-.04.047.2 1.25-.61 2.226-1.24 1.289-1.56.918-1.7.383-1.99.184-1.87.175-1.85.196-2.62.546 1.24.547 2.93 1.493 2 .375 2.79.73 2.45.754 2.8 1.289 3.24 2.059 2.48 2.226 2.15 1.277 2.01 1.86 4.64 11.668-6.65-1.66"
        ></path>
        <path
          fill="none"
          stroke="#231f20"
          strokeWidth="0.601"
          d="M1265 463.22l-2.01-2.598-1.7-2.039-1.78-2.024-1.29-1.496-1.86-1.851-2.32-2.031-2.16-1.301-2.16-1.121-2.63-1.477-2.47-1.113-2.47-.75-2.54-.832-1.63.644-2.33 1.121-2 1.497-2.15 1.296-1.87 1.457-1.68 1.504-1.71.743-2.02.918-1.69-.176-1.54-1.485-.11-.566h-.05l-1.24-.938-1.23-1.281-.61-1.472-.31-1.68-.16-2.039.47-1.289.44 1.66 1.09.918.94.75 1.39.183 1.85-.73.07.027c.27-.054.53-.105.9-.144l1.5-.274 1.7-.91.22-.254-.69.063h-2.17l-1.53-.383-1.56-.73-1.37-1.301-1.09-.918-.92-1.297-.61-.942-.33-1.472.47-1.492.54-.559-.23-.723.16-1.66.29-1.504.33-1.297 1.08-1.3 1.07-.91h.61l-.61 1.105-.14 1.496v1.484l.46 1.278.14.554 1.25.754.77 1.668.3 1.477-.78.559.48.542h2.32l1.23-.191 1.24-.168 1.07-.183h.77l-1.54-1.106-1.23-1.504-.92-.906-.62-1.113v-1.301l-1.1-.938-.29-1.297.14-1.664.23-.203-.37-.715-.16-1.675.16-2.043.45-1.856.94-1.484 1.23-.918.92-.735.94-.371 1.53.188.94.742-1.86.176-1.08.742-.93.918-.31 1.477.48 1.492.76 1.496.19.996.28.105 1.37.75.49 1.282v1.504l-.33 1.093.33.735 1.23.945 1.53 1.113 1.71 1.106 1.55.933 1.22.735.93.371 1.24-1.106 1.24-.574 1.7-.547 2.15-.175 2.18.175 1.37.371.63-1.289.46-1.289.62-1.133.77-1.101 1.07-.363.5.086.28-.665v-1.472l-.61-1.113-.77-1.102-1.24-.195-.92-.176 1.07-.395h1.24l1.54.2 1.24.371.93 1.297.76 1.113.15 1.847-.15 1.668-.46 1.868-.04.047.2 1.25-.61 2.226-1.24 1.289-1.56.918-1.7.383-1.99.184-1.87.175-1.85.196-2.62.546 1.24.547 2.93 1.493 2 .375 2.79.73 2.45.754 2.8 1.289 3.24 2.059 2.48 2.226 2.15 1.277 2.01 1.86 4.64 11.668-6.65-1.66z"
        ></path>
        <path
          fill="#ed1c24"
          d="M1371 517.73l-.42 4.715-1.29 3.781-1.68 2.813-2.15 3.312c-1.33 2.325-2.12 4.61-3.39 5.719-1.25 1.098-6 4.738-10.65 4.641-4.69-.059-6.72-3.235-7.2-4.715-.47-1.504-1.19-8.391-2.85-9.082-1.65-.727-4.34.625-6.14 2.051-1.84 1.414-3.8 3.219-6.25 1.648-2.46-1.57-.72-11.926-5.21-13.906-1.28-.547-3.56 1.418-4.83 1.34-1.25-.063-6.46-3.625-8.75-2.91-2.3.703-5.23 4.343-6.5 5.918-1.25 1.57-3.11 2.742-3.69 3.191l-2.06 1.973-1.24 1.972-.22.559c-1.73 3.34-1.87 6.055-1.97 8.164-.1 2.305.63 8.719.32 12.105-.32 3.364-1.06 7.883-1.26 9.165-.13.757-.64 1.777-.49 3.281v.105l-1.93 2.449-.47.473c-.2.125-.37.254-.52.399-.16.148-.4.324-.68.507l-.97.75-.71.481c-2.25 1.203-5.25 2.097-7.57 2.883l-1.03.195-2.47.254-2.46.484h-4.12l-1.46-.484-.81-1.242-.61-1.493 1.42-1.73 1.04-1.719 1.23-1.972 1.34-2.414 1.43-3.243 1.11-2.293.96-1.339 1.11-2.489v-2.48l-1.91-1.328-2.23-.203-1.27.203 2.15-2.453 1.65-1.512 1.02-1.211v-2.235l-.61-2.218-.83-1.731-.82-2.215-.2-1.726c-.33-.656-1.59-1.25-3.81-3.313-2.19-2.043-2.44-4.101-3.23-5.058-.79-.946-2.54-1.172-3.23-1.895-.72-.715-1.59-3.144-2.63-3.386-1.02-.239-5.21 1.421-7.25 2.214-2.05.774-2.38.391-4.04-.714-1.65-1.102-4.65 2.367-5.61 3.949-.94 1.582-.06 7.586-1.42 9.312-1.33 1.75-4.19 1.035-5.59-.054-1.43-1.125-5.06-3.567-7.58-3.008-2.54.535-2.54 9.226-4.36 11.133-1.82 1.894-3.78 3.621-9.39 2.046-5.61-1.57-8.14-5.449-8.63-6.46l-1.72-3.301-2.1-3.313-1.7-2.804-1.29-3.797-.43-4.715-.41-5.188.41-5.652.87-3.773 1.69-.946.86 1.887 1.27 3.309 1.28 3.293 1.27 3.789.86 3.757.86-3.3.84-2.364 2.15-.937 2.11.937 1.71 2.844.84 2.82.44 3.782 1.28-4.258 1.26-3.281 1.72-1.907 2.55-.461 2.12 1.875v3.293l2.57-2.8 2.11-1.438 2.56-2.351 2.13-1.887h2.99l1.69-2.821 1.72.458 1.68-1.883h2.14l1.71 1.425 1.27 2.821 2.56-2.363 2.13.48 1.62-2.461 4.19-2.133 3.31-3.679 5.09-1.043.16-.122-.19-.918.2-2.214.41-2.743.44-1.371.17-.586-.2-1.238.2-2.219.3-1.121.14-.359-.44-1.731v-2.234l-.2-1.976-1.02-1.727-1.04-1.238-1.45-1.489-1.42-1.968-1.04-2.461-.63-1.992-.21-2.481h-2.66l-2.68-.976-1.23-1.489v-1.969l.61 1.727 1.45.977 1.43.515 2.49-.254-2.28-1.238-1.02-1.973 1.23.989 1.24.73h1.42l1.66.254-1.85-1.484-1.65-2.461-.82-2.735.63-1.465.4 1.719.81 1.985 1.03.75 1.67.48h1.42l1.87.496-.83-1.726-1.04-1.743-1.22-1.238-1.87-.976 1.45-.254 1.44.254 1.44.742 1.66 1.472-.84-1.961-.4-1.75-.82-1.96-1.45-1.497 1.65-.222 1.65.976 1.46 1.985 1.63 1.961-1.04-2.227-.59-1.973-1.05-2.226-2.26-1.953-1.86-.762.82-.496h1.86l1.85.242 1.86.496 2.05.766 1.24 1.226 1.86 1.457-.42-1.71-.82-1.739-.62-1.734 1.24 1.492.82 1.231 1.23 2.726.22-1.476-.43-2.239-.4-1.734-.82-1.723-1.44-1.472-1.05-1.004-1.63-.977-2.25-.742-2.49-.254-2.68-.254-3.29.254-2.07 1.23-2.04.743 1.01-1.235 1.03-1.472 1.45-1.485 1.63-1.25 1.88-.73 2.26-.254 2.06.254 2.26.242 1.85.73 1.45 1.008 1.64 1.965.22-2.695-.63-1.985-.61-1.738-.84-1.492-1.43-1.723-1.86-1.718-1.64-1.481-1.86-.742-1.85-.734-2.27-.762-2.26-.242-2.88-.254-2.47-.246h-2.47l-2.28-.508-1.84-.481-2.07-1.238-1.65-1.223-1.02-1.48-.81-1.496-.21-2.215.21-1.731.81-1.992 1.02-.976 1.24-.489 1.44-.253 1.44.488 1.24 1.726-1.03-.984-1.04-.742h-1.23l-1.23.742-.61 1.484v1.496l.19 1.727.83 1.719 1.64 1.496 2.07.742 2.28.484 1.83-.25h2.48l-1.64-.976-1.25-1.731-.61-2.468.2-1.993 1.03-1.476 1.66-1.231h2.47l-1.04.489-1.23 1.472-.41 1.743.41 1.98 1.23 1.484 1.66.735 2.26.242 2.46.754 2.07.976 2.88.743 2.06 1.472 2.07 1.493 2.05 1.976 1.44 1.981 1.84 2.96-.19-2.96v-2.493l-1.03-2.207-1.02-1.98-1.66-1.731-1.85-1.961-1.65-1.484-1.45-1.484-1.65-1.231-2.06-.508h-2.06l-1.83.246-1.65.489-2.27 1.992 1.64-1.992 1.45-1.465 2.05-1.008 1.45-.723 2.26.235 2.67.742 1.87.984 1.84 1.496 1.86 1.243 1.86 2.215 1.63 1.718-.6-1.23.2-1.961-.2-2.246-.22-2.473-.81-2.219-1.04-1.238-1.44-.742-2.26.254 1.63-.988h1.87l1.44.246 1.83.988v-1.723l.23-2.468.82-2.715.82-1.973.41 1.719.61 2.238.64 2.703.4 2.219.21 1.48 1.23-1.48 1.44-.988 1.44-.735 2.26.489-1.64.734-.82 1.242-1.04 1.734-.59 1.477-.43 1.992-.19 1.477.39 2.469 1.47-1.981 1.21-1.738 2.27-1.235 1.65-.73 1.66-.742 2.46-.254 2.06.742 2.05.488 1.66 1.504 1.43 1.231 1.23 2.226-.8-.984-1.25-.742-1.24-.5-1.43-.496-1.45-.247-2.06.743-2.05.988-2.07.984-1.64 1.231-1.45 1.23-1.03 1.985-1.02 2.461-1.25 3.23-.8 3.699-.43 4.453-.41 5.688.84-2.981 1.01-2.468 1.44-2.715 1.65-1.977 2.27-2.468 1.87-1.981 2.04-1.23 2.46-1.489 2.48-1.238 2.47-.488 1.43-.735 1.46-.996.82-1.238.62-2.219v-2.222l-.82-1.497-2.69-1.484 2.07.254 1.63.984 1.25 1.496.82 1.985v1.961l-.61 2.238-1.22 2.227-1.87 1.453-2.89 1.008 2.05-.254h6.81l2.68-.754 2.68-1.231 1.85-1.23 1.65-1.731 1.25-1.961.6-2.968v-3.965l.82 2.961v2.73l-.61 2.707-1.24 2.227-1.85 1.98-2.27 1.731-3.09 1.242-2.47.996-2.88.231h-6.6l-3.09.753-2.46.977-2.46 1.73-2.07 1.981-1.44 1.726-1.03 2.739-1.04 2.461-2.04 2.957 2.04-1.731 1.66-1.726 2.05-1.473 3.09-1.262 2.89-.234 3.5.234 2.25.774 2.07 1.48 2.27 2.699 1.65 3.219-1.24-1.98-1.65-1.473-1.84-.996-2.27-.734-2.48-.254-3.09.5-2.87.488-2.28 1.23-2.48 1.981-1.64 2.727-1.45 2.488-1 3.195 1-2.473 1.45-1.98 2.07-1.984 1.85-.489-2.28 1.731-1.03 1.746-1.02 1.973-1.45 4.433 1.45-2.695 1.65-2.238 1.64-1.219 1.86-1.016h2.07l1.43.762.62.723-1.65-.223h-1.63l-1.86.973-1.24 1.71-1.03 2.481v3.223l.42 2.461.2 2.98.6-3.227 1.45-2.214 1.87-2.215 2.25-2.485 1.23-3.211.83-1.738.82 2.488-.41 2.207-1.24 2.981 1.87-2.227 1.02-2.48 1.03-3.953.21 3.472v2.461l-.84 2.485-.61 2.468 1.24-1.242 1.65-1.98 1.24-1.731.83-1.726.81-2.461.61-1.746.61 2.469v2.988l-.61 2.461-1.02 1.965-1.66 2.964 1.86-.984 1.05-1.23 1.22-1.973 1.23-2.981.84.254-.43 3.203-.61 2.473-1.24 2.227-.63 1.504 1.46-.496 1.45-.762 2.04-1.985-1.43 2.989-2.27 3.195-1.44 2.731-1.24 2.96-1.24 2.981-2.47 2.957-1.85 2.219-1.65.73.84 3.223.6 2.969v3.691l.07.637.75 2.097.42 3.203.21 2.981 8.44 1.277 3.31 3.66 4.18 2.153 1.62 2.449 2.13-.457 2.57 2.359 1.27-2.82 1.7-1.426h2.15l1.68 1.887 1.71-.461 1.71 2.82h2.99l2.1 1.868 2.57 2.382 2.12 1.407 2.58 2.812v-3.281l2.1-1.895 2.56.469 1.72 1.895 1.27 3.3 1.29 4.246.41-3.777.86-2.832 1.7-2.832 2.11-.945 2.15.945.84 2.363.85 3.301.87-3.769 1.27-3.789 1.27-3.29 1.3-3.293.84-1.894 1.7.937.85 3.77.42 5.664-.42 5.195"
        ></path>
        <path
          fill="none"
          stroke="#231f20"
          strokeWidth="0.601"
          d="M1371 517.73l-.42 4.715-1.29 3.781-1.68 2.813-2.15 3.312c-1.33 2.325-2.12 4.61-3.39 5.719-1.25 1.098-6 4.738-10.65 4.641-4.69-.059-6.72-3.235-7.2-4.715-.47-1.504-1.19-8.391-2.85-9.082-1.65-.727-4.34.625-6.14 2.051-1.84 1.414-3.8 3.219-6.25 1.648-2.46-1.57-.72-11.926-5.21-13.906-1.28-.547-3.56 1.418-4.83 1.34-1.25-.063-6.46-3.625-8.75-2.91-2.3.703-5.23 4.343-6.5 5.918-1.25 1.57-3.11 2.742-3.69 3.191l-2.06 1.973-1.24 1.972-.22.559c-1.73 3.34-1.87 6.055-1.97 8.164-.1 2.305.63 8.719.32 12.105-.32 3.364-1.06 7.883-1.26 9.165-.13.757-.64 1.777-.49 3.281v.105l-1.93 2.449-.47.473c-.2.125-.37.254-.52.399-.16.148-.4.324-.68.507l-.97.75-.71.481c-2.25 1.203-5.25 2.097-7.57 2.883l-1.03.195-2.47.254-2.46.484h-4.12l-1.46-.484-.81-1.242-.61-1.493 1.42-1.73 1.04-1.719 1.23-1.972 1.34-2.414 1.43-3.243 1.11-2.293.96-1.339 1.11-2.489v-2.48l-1.91-1.328-2.23-.203-1.27.203 2.15-2.453 1.65-1.512 1.02-1.211v-2.235l-.61-2.218-.83-1.731-.82-2.215-.2-1.726c-.33-.656-1.59-1.25-3.81-3.313-2.19-2.043-2.44-4.101-3.23-5.058-.79-.946-2.54-1.172-3.23-1.895-.72-.715-1.59-3.144-2.63-3.386-1.02-.239-5.21 1.421-7.25 2.214-2.05.774-2.38.391-4.04-.714-1.65-1.102-4.65 2.367-5.61 3.949-.94 1.582-.06 7.586-1.42 9.312-1.33 1.75-4.19 1.035-5.59-.054-1.43-1.125-5.06-3.567-7.58-3.008-2.54.535-2.54 9.226-4.36 11.133-1.82 1.894-3.78 3.621-9.39 2.046-5.61-1.57-8.14-5.449-8.63-6.46l-1.72-3.301-2.1-3.313-1.7-2.804-1.29-3.797-.43-4.715-.41-5.188.41-5.652.87-3.773 1.69-.946.86 1.887 1.27 3.309 1.28 3.293 1.27 3.789.86 3.757.86-3.3.84-2.364 2.15-.937 2.11.937 1.71 2.844.84 2.82.44 3.782 1.28-4.258 1.26-3.281 1.72-1.907 2.55-.461 2.12 1.875v3.293l2.57-2.8 2.11-1.438 2.56-2.351 2.13-1.887h2.99l1.69-2.821 1.72.458 1.68-1.883h2.14l1.71 1.425 1.27 2.821 2.56-2.363 2.13.48 1.62-2.461 4.19-2.133 3.31-3.679 5.09-1.043.16-.122-.19-.918.2-2.214.41-2.743.44-1.371.17-.586-.2-1.238.2-2.219.3-1.121.14-.359-.44-1.731v-2.234l-.2-1.976-1.02-1.727-1.04-1.238-1.45-1.489-1.42-1.968-1.04-2.461-.63-1.992-.21-2.481h-2.66l-2.68-.976-1.23-1.489v-1.969l.61 1.727 1.45.977 1.43.515 2.49-.254-2.28-1.238-1.02-1.973 1.23.989 1.24.73h1.42l1.66.254-1.85-1.484-1.65-2.461-.82-2.735.63-1.465.4 1.719.81 1.985 1.03.75 1.67.48h1.42l1.87.496-.83-1.726-1.04-1.743-1.22-1.238-1.87-.976 1.45-.254 1.44.254 1.44.742 1.66 1.472-.84-1.961-.4-1.75-.82-1.96-1.45-1.497 1.65-.222 1.65.976 1.46 1.985 1.63 1.961-1.04-2.227-.59-1.973-1.05-2.226-2.26-1.953-1.86-.762.82-.496h1.86l1.85.242 1.86.496 2.05.766 1.24 1.226 1.86 1.457-.42-1.71-.82-1.739-.62-1.734 1.24 1.492.82 1.231 1.23 2.726.22-1.476-.43-2.239-.4-1.734-.82-1.723-1.44-1.472-1.05-1.004-1.63-.977-2.25-.742-2.49-.254-2.68-.254-3.29.254-2.07 1.23-2.04.743 1.01-1.235 1.03-1.472 1.45-1.485 1.63-1.25 1.88-.73 2.26-.254 2.06.254 2.26.242 1.85.73 1.45 1.008 1.64 1.965.22-2.695-.63-1.985-.61-1.738-.84-1.492-1.43-1.723-1.86-1.718-1.64-1.481-1.86-.742-1.85-.734-2.27-.762-2.26-.242-2.88-.254-2.47-.246h-2.47l-2.28-.508-1.84-.481-2.07-1.238-1.65-1.223-1.02-1.48-.81-1.496-.21-2.215.21-1.731.81-1.992 1.02-.976 1.24-.489 1.44-.253 1.44.488 1.24 1.726-1.03-.984-1.04-.742h-1.23l-1.23.742-.61 1.484v1.496l.19 1.727.83 1.719 1.64 1.496 2.07.742 2.28.484 1.83-.25h2.48l-1.64-.976-1.25-1.731-.61-2.468.2-1.993 1.03-1.476 1.66-1.231h2.47l-1.04.489-1.23 1.472-.41 1.743.41 1.98 1.23 1.484 1.66.735 2.26.242 2.46.754 2.07.976 2.88.743 2.06 1.472 2.07 1.493 2.05 1.976 1.44 1.981 1.84 2.96-.19-2.96v-2.493l-1.03-2.207-1.02-1.98-1.66-1.731-1.85-1.961-1.65-1.484-1.45-1.484-1.65-1.231-2.06-.508h-2.06l-1.83.246-1.65.489-2.27 1.992 1.64-1.992 1.45-1.465 2.05-1.008 1.45-.723 2.26.235 2.67.742 1.87.984 1.84 1.496 1.86 1.243 1.86 2.215 1.63 1.718-.6-1.23.2-1.961-.2-2.246-.22-2.473-.81-2.219-1.04-1.238-1.44-.742-2.26.254 1.63-.988h1.87l1.44.246 1.83.988v-1.723l.23-2.468.82-2.715.82-1.973.41 1.719.61 2.238.64 2.703.4 2.219.21 1.48 1.23-1.48 1.44-.988 1.44-.735 2.26.489-1.64.734-.82 1.242-1.04 1.734-.59 1.477-.43 1.992-.19 1.477.39 2.469 1.47-1.981 1.21-1.738 2.27-1.235 1.65-.73 1.66-.742 2.46-.254 2.06.742 2.05.488 1.66 1.504 1.43 1.231 1.23 2.226-.8-.984-1.25-.742-1.24-.5-1.43-.496-1.45-.247-2.06.743-2.05.988-2.07.984-1.64 1.231-1.45 1.23-1.03 1.985-1.02 2.461-1.25 3.23-.8 3.699-.43 4.453-.41 5.688.84-2.981 1.01-2.468 1.44-2.715 1.65-1.977 2.27-2.468 1.87-1.981 2.04-1.23 2.46-1.489 2.48-1.238 2.47-.488 1.43-.735 1.46-.996.82-1.238.62-2.219v-2.222l-.82-1.497-2.69-1.484 2.07.254 1.63.984 1.25 1.496.82 1.985v1.961l-.61 2.238-1.22 2.227-1.87 1.453-2.89 1.008 2.05-.254h6.81l2.68-.754 2.68-1.231 1.85-1.23 1.65-1.731 1.25-1.961.6-2.968v-3.965l.82 2.961v2.73l-.61 2.707-1.24 2.227-1.85 1.98-2.27 1.731-3.09 1.242-2.47.996-2.88.231h-6.6l-3.09.753-2.46.977-2.46 1.73-2.07 1.981-1.44 1.726-1.03 2.739-1.04 2.461-2.04 2.957 2.04-1.731 1.66-1.726 2.05-1.473 3.09-1.262 2.89-.234 3.5.234 2.25.774 2.07 1.48 2.27 2.699 1.65 3.219-1.24-1.98-1.65-1.473-1.84-.996-2.27-.734-2.48-.254-3.09.5-2.87.488-2.28 1.23-2.48 1.981-1.64 2.727-1.45 2.488-1 3.195 1-2.473 1.45-1.98 2.07-1.984 1.85-.489-2.28 1.731-1.03 1.746-1.02 1.973-1.45 4.433 1.45-2.695 1.65-2.238 1.64-1.219 1.86-1.016h2.07l1.43.762.62.723-1.65-.223h-1.63l-1.86.973-1.24 1.71-1.03 2.481v3.223l.42 2.461.2 2.98.6-3.227 1.45-2.214 1.87-2.215 2.25-2.485 1.23-3.211.83-1.738.82 2.488-.41 2.207-1.24 2.981 1.87-2.227 1.02-2.48 1.03-3.953.21 3.472v2.461l-.84 2.485-.61 2.468 1.24-1.242 1.65-1.98 1.24-1.731.83-1.726.81-2.461.61-1.746.61 2.469v2.988l-.61 2.461-1.02 1.965-1.66 2.964 1.86-.984 1.05-1.23 1.22-1.973 1.23-2.981.84.254-.43 3.203-.61 2.473-1.24 2.227-.63 1.504 1.46-.496 1.45-.762 2.04-1.985-1.43 2.989-2.27 3.195-1.44 2.731-1.24 2.96-1.24 2.981-2.47 2.957-1.85 2.219-1.65.73.84 3.223.6 2.969v3.691l.07.637.75 2.097.42 3.203.21 2.981 8.44 1.277 3.31 3.66 4.18 2.153 1.62 2.449 2.13-.457 2.57 2.359 1.27-2.82 1.7-1.426h2.15l1.68 1.887 1.71-.461 1.71 2.82h2.99l2.1 1.868 2.57 2.382 2.12 1.407 2.58 2.812v-3.281l2.1-1.895 2.56.469 1.72 1.895 1.27 3.3 1.29 4.246.41-3.777.86-2.832 1.7-2.832 2.11-.945 2.15.945.84 2.363.85 3.301.87-3.769 1.27-3.789 1.27-3.29 1.3-3.293.84-1.894 1.7.937.85 3.77.42 5.664-.42 5.195z"
        ></path>
        <path
          fill="#231f20"
          d="M1274.4 563.67c.61 0 .78-.34.78.383 0 .718-.5 1.297-1.11 1.297-.6 0-1.1-.579-1.1-1.297 0-.723.83-.383 1.43-.383"
        ></path>
        <path
          fill="#ed1c24"
          d="M1281.2 784.86c.97-6.172 1.13-13.175.81-16.074-.33-2.937.82-11.562-9.1-10.418 2.91 3.895 2.43 5.691 1.95 10.086-.49 4.375-2.77 12.676-4.88 15.105-2.12 2.434-3.26 3.418-3.26 3.418s.51-2.437 1.14-5.378c.66-2.911.32-7.95-.63-9.414-1-1.465-3.6-3.399-8.31-3.086 3.09 2.753 3.91 4.218 3.58 8.293-.41 5.203-4.56 12.527-7.97 16.421 3.73 1.633 17.72-3.093 17.72-3.093l8.95-5.86"
        ></path>
        <path
          fill="none"
          stroke="#231f20"
          strokeLinejoin="round"
          strokeWidth="0.601"
          d="M1281.2 784.86c.97-6.172 1.13-13.175.81-16.074-.33-2.937.82-11.562-9.1-10.418 2.91 3.895 2.43 5.691 1.95 10.086-.49 4.375-2.77 12.676-4.88 15.105-2.12 2.434-3.26 3.418-3.26 3.418s.51-2.437 1.14-5.378c.66-2.911.32-7.95-.63-9.414-1-1.465-3.6-3.399-8.31-3.086 3.09 2.753 3.91 4.218 3.58 8.293-.41 5.203-4.56 12.527-7.97 16.421 3.73 1.633 17.72-3.093 17.72-3.093l8.95-5.86z"
        ></path>
        <path
          fill="#ed1c24"
          d="M1332.6 722.19c2.85 1.23 6.68 3.183 9.02 3.261 2.35.078 5.77-2.605 6.26-5.625 1.71 3.02 2.36 9.031 5.13 11.301 2.75 2.281 8.19 1.707 11.78.887-4.88 2.375-8.77 5.949-12.92 13.347-4.14 7.407-8.03 12.286-9.19 14.946-1.13 2.695-.56-4.535-.56-4.535l-3.43-11.793-5.36-17.805-.73-3.984"
        ></path>
        <path
          fill="none"
          stroke="#231f20"
          strokeLinejoin="round"
          strokeWidth="0.601"
          d="M1332.6 722.19c2.85 1.23 6.68 3.183 9.02 3.261 2.35.078 5.77-2.605 6.26-5.625 1.71 3.02 2.36 9.031 5.13 11.301 2.75 2.281 8.19 1.707 11.78.887-4.88 2.375-8.77 5.949-12.92 13.347-4.14 7.407-8.03 12.286-9.19 14.946-1.13 2.695-.56-4.535-.56-4.535l-3.43-11.793-5.36-17.805-.73-3.984z"
        ></path>
        <path
          fill="#ed1c24"
          d="M1298.7 749.26c-3.74-7.305-8.29-25.363-16.09-30.879-7.8-5.535-9.75-7.317-16.43-7.981 5.38-1.296 13.83-2.273 12.36-5.046-1.46-2.747-.98-1.934-.98-1.934s3.09.5 3.74-.164c.66-.649 1.63-3.899 1.63-5.539 0-1.621-1.14-4.551 1.63-1.953 2.77 2.617 15.11 26.027 15.28 29.609.17 3.574-1.14 23.887-1.14 23.887"
        ></path>
        <path
          fill="none"
          stroke="#231f20"
          strokeLinejoin="round"
          strokeWidth="0.601"
          d="M1298.7 749.26c-3.74-7.305-8.29-25.363-16.09-30.879-7.8-5.535-9.75-7.317-16.43-7.981 5.38-1.296 13.83-2.273 12.36-5.046-1.46-2.747-.98-1.934-.98-1.934s3.09.5 3.74-.164c.66-.649 1.63-3.899 1.63-5.539 0-1.621-1.14-4.551 1.63-1.953 2.77 2.617 15.11 26.027 15.28 29.609.17 3.574-1.14 23.887-1.14 23.887z"
        ></path>
        <path
          fill="#ed1c24"
          d="M1332.1 719.18c-1.31-12.039-6.51-27.129-5.85-40.809.65-13.644.82-22.101 6.17-33.488 1.46-3.094-1.96-2.93-3.25-.653-1.3 2.286-4.88 17.891-8.77 21.461-3.92 3.586-8.14 4.067-8.14-.152 0-4.23-3.42-3.742-4.06.484-.65 4.223-.76 9.075-13.49 7.485-6.51-.813-10.56-3.918-10.56-3.918l47.95 49.59"
        ></path>
        <path
          fill="none"
          stroke="#231f20"
          strokeLinejoin="round"
          strokeWidth="0.601"
          d="M1332.1 719.18c-1.31-12.039-6.51-27.129-5.85-40.809.65-13.644.82-22.101 6.17-33.488 1.46-3.094-1.96-2.93-3.25-.653-1.3 2.286-4.88 17.891-8.77 21.461-3.92 3.586-8.14 4.067-8.14-.152 0-4.23-3.42-3.742-4.06.484-.65 4.223-.76 9.075-13.49 7.485-6.51-.813-10.56-3.918-10.56-3.918l47.95 49.59z"
        ></path>
        <path
          fill="#104680"
          d="M1252.2 682.07c13.89 4.121 46.82 14.727 45.31 51.153-1.52 36.425-12.57 48.125-29.25 57.215-6.71 3.261-13.88 3.046-13.88 3.046l-2.18 2.825s-3.68 1.511-10.41 3.671c-6.7 2.176-18.2 1.641-21.02 1.204-2.81-.454-3.46 1.738-.64 3.046 2.82 1.297 24.92 1.407 27.52.094.23 3.031-6.06 6.723-13.87 8.012-7.8 1.316-19.49 1.316-22.11 4.773-2.59 3.465-4.32 5.625-2.16 6.504s11.04-4.336 14.08-3.039c3.05 1.301 6.3 1.965 8.9 4.121-3.7 3.469-4.33 7.375-2.39 11.496 1.94 4.114 9.98 12.364 31.22 8.672 21.23-3.699 53.53-25.359 63.72-38.164 10.19-12.773 22.54-26.863 18.21-54.844-4.34-27.96-17.32-47.89-32.73-60.683-15.39-12.801-34.25-33.391-34.25-33.391l-3.03 19.094-21.04 5.195"
        ></path>
        <path
          fill="none"
          stroke="#231f20"
          strokeLinejoin="round"
          strokeWidth="0.601"
          d="M1252.2 682.07c13.89 4.121 46.82 14.727 45.31 51.153-1.52 36.425-12.57 48.125-29.25 57.215-6.71 3.261-13.88 3.046-13.88 3.046l-2.18 2.825s-3.68 1.511-10.41 3.671c-6.7 2.176-18.2 1.641-21.02 1.204-2.81-.454-3.46 1.738-.64 3.046 2.82 1.297 24.92 1.407 27.52.094.23 3.031-6.06 6.723-13.87 8.012-7.8 1.316-19.49 1.316-22.11 4.773-2.59 3.465-4.32 5.625-2.16 6.504s11.04-4.336 14.08-3.039c3.05 1.301 6.3 1.965 8.9 4.121-3.7 3.469-4.33 7.375-2.39 11.496 1.94 4.114 9.98 12.364 31.22 8.672 21.23-3.699 53.53-25.359 63.72-38.164 10.19-12.773 22.54-26.863 18.21-54.844-4.34-27.96-17.32-47.89-32.73-60.683-15.39-12.801-34.25-33.391-34.25-33.391l-3.03 19.094-21.04 5.195zM1232.6 824.8l3.46.125"
        ></path>
        <path
          fill="#231f20"
          d="M1249.4 821.97c.03-.821.76-1.465 1.62-1.446.88.02 1.55.711 1.51 1.535-.04.809-.76 1.454-1.61 1.415-.87-.02-1.54-.711-1.52-1.504"
        ></path>
        <path
          fill="#ed1c24"
          d="M1298.5 697.23c-20.18-12.937-44.85-23.711-70.22.664-16.05 15.383-12.58 15.801-17.79 16.243-5.2.429-8.89-1.297-9.76-3.25 4.13.222 9.54 1.523 13.88-4.766s5.86-13.012 3.48-14.953c-2.39-1.973-.67 1.308-2.84-.227-2.15-1.511-.64-3.914 3.04-6.914 3.7-3.062 4.34-1.765 5.64-2.625 1.32-.867 4.77-8.66 6.95-10.183 2.16-1.504 24.48-8.672 41.19 2.593-16.92-12.566-25.59-14.296-40.12-15.808 10.84-3.477 16.49-4.336 21.24-9.754 4.77-5.434.65-9.543 4.99-9.543s.88 3.918 2.82 3.918c1.95 0 8.47-2.609 10.41-6.953 1.95-4.328 4.33-14.074 13.87-16.25 9.55-2.192 11.92 1.941 12.35 3.906-4.54.191-4.98-4.785-11.91.856-6.93 5.624-14.09 20.597-3.26 39.23 10.83 18.652 19.74 25.781 20.38 32.09-3.68-2.395-6.08-3.028-6.08-3.028l1.74 4.754"
        ></path>
        <path
          fill="none"
          stroke="#231f20"
          strokeLinejoin="round"
          strokeWidth="0.601"
          d="M1298.5 697.23c-20.18-12.937-44.85-23.711-70.22.664-16.05 15.383-12.58 15.801-17.79 16.243-5.2.429-8.89-1.297-9.76-3.25 4.13.222 9.54 1.523 13.88-4.766s5.86-13.012 3.48-14.953c-2.39-1.973-.67 1.308-2.84-.227-2.15-1.511-.64-3.914 3.04-6.914 3.7-3.062 4.34-1.765 5.64-2.625 1.32-.867 4.77-8.66 6.95-10.183 2.16-1.504 24.48-8.672 41.19 2.593-16.92-12.566-25.59-14.296-40.12-15.808 10.84-3.477 16.49-4.336 21.24-9.754 4.77-5.434.65-9.543 4.99-9.543s.88 3.918 2.82 3.918c1.95 0 8.47-2.609 10.41-6.953 1.95-4.328 4.33-14.074 13.87-16.25 9.55-2.192 11.92 1.941 12.35 3.906-4.54.191-4.98-4.785-11.91.856-6.93 5.624-14.09 20.597-3.26 39.23 10.83 18.652 19.74 25.781 20.38 32.09-3.68-2.395-6.08-3.028-6.08-3.028l1.74 4.754z"
        ></path>
        <path
          fill="#ed1c24"
          d="M1234.8 827.88c3.5-1.406 3.82-1.711 4.71-1.797.88-.09 11.47 3.172 16.1 3.25 4.62.078 11.21-3.992 14.49-13.543 1.12 7.859-.59 9.312-2.71 11.68-2.1 2.351-5.89 3.836-8.39 3.906 1.48 1.277 5.15 1.141 6.29 1.211-3.59 1.043-8.54 1.851-15.37-.07-6.84-1.961-9.01-4.922-9.82-4.903-.82.02-5.3.266-5.3.266"
        ></path>
        <path
          fill="none"
          stroke="#231f20"
          strokeLinejoin="round"
          strokeWidth="0.601"
          d="M1234.8 827.88c3.5-1.406 3.82-1.711 4.71-1.797.88-.09 11.47 3.172 16.1 3.25 4.62.078 11.21-3.992 14.49-13.543 1.12 7.859-.59 9.312-2.71 11.68-2.1 2.351-5.89 3.836-8.39 3.906 1.48 1.277 5.15 1.141 6.29 1.211-3.59 1.043-8.54 1.851-15.37-.07-6.84-1.961-9.01-4.922-9.82-4.903-.82.02-5.3.266-5.3.266z"
        ></path>
        <path
          fill="#ed1c24"
          d="M1248 845.84c3.91.312 22.35-1.074 29.84 9.023-.16-3.261-2.21-5.937-5.62-8.047 4.47-.566 10.58-.488 15.36.313 4.8.82 12.28 4.004 14.44 8.223-.61-5.372-4.35-7-6.71-9.024-2.36-2.039-2.77-4.062-8.21-4.148 5.52-1.223 12.35-3.91 17.24-4.641 4.87-.723 15.28-1.387 22.74 5.938-1.78-6.18-4.2-9.09-10.39-10.743-6.17-1.609-6.76-2.019-10-2.175 4.14-4.243 8.87-9.524 15.12-15.454 6.27-5.933 15.85-15.601 29.58-6.992-1.95-5.758-7.47-7.468-13.65-6.582-6.18.891-12.03 2.285-16.74 5.039-4.72 2.754-5.46 5.012-7.4 9.426 1.2-5.527 3.09-12.273 4.63-13.398-2.18.964-7.76 6.906-8.96 9.914-1.85-1.555-3.26-3.371-5.19-3.938.57 2.551 2.52 5.305-.14 9.055-2.69 3.75-7.46 7.851-8.95 9.5 1.13-4.629 2.43-8.711 1.7-10.399-.72-1.703-3.56-5.683-4.97-7.074.59 2.766 1.23 5.696 1.23 5.696s-2.59-4.961-3.9-6.102c-1.29-1.137-4.06-2.941-11.37-2.68 6.17 2.68 10.72 4.961 10.08 11.801-.66 6.824-2.22 11.844-8.16 16.641-5.92 4.812-11.93 7.488-16.23 8.3-4.32.821-9.86.821-11.94 1.454l-3.43 1.074"
        ></path>
        <path
          fill="none"
          stroke="#231f20"
          strokeLinejoin="round"
          strokeWidth="0.601"
          d="M1248 845.84c3.91.312 22.35-1.074 29.84 9.023-.16-3.261-2.21-5.937-5.62-8.047 4.47-.566 10.58-.488 15.36.313 4.8.82 12.28 4.004 14.44 8.223-.61-5.372-4.35-7-6.71-9.024-2.36-2.039-2.77-4.062-8.21-4.148 5.52-1.223 12.35-3.91 17.24-4.641 4.87-.723 15.28-1.387 22.74 5.938-1.78-6.18-4.2-9.09-10.39-10.743-6.17-1.609-6.76-2.019-10-2.175 4.14-4.243 8.87-9.524 15.12-15.454 6.27-5.933 15.85-15.601 29.58-6.992-1.95-5.758-7.47-7.468-13.65-6.582-6.18.891-12.03 2.285-16.74 5.039-4.72 2.754-5.46 5.012-7.4 9.426 1.2-5.527 3.09-12.273 4.63-13.398-2.18.964-7.76 6.906-8.96 9.914-1.85-1.555-3.26-3.371-5.19-3.938.57 2.551 2.52 5.305-.14 9.055-2.69 3.75-7.46 7.851-8.95 9.5 1.13-4.629 2.43-8.711 1.7-10.399-.72-1.703-3.56-5.683-4.97-7.074.59 2.766 1.23 5.696 1.23 5.696s-2.59-4.961-3.9-6.102c-1.29-1.137-4.06-2.941-11.37-2.68 6.17 2.68 10.72 4.961 10.08 11.801-.66 6.824-2.22 11.844-8.16 16.641-5.92 4.812-11.93 7.488-16.23 8.3-4.32.821-9.86.821-11.94 1.454l-3.43 1.074zM1287.1 842.18c-1.87.156-4.88.32-4.88.32M1272.2 846.82a94.122 94.122 0 00-4.71-.566"
        ></path>
      </g>
      <path
        fill="none"
        stroke="#231f20"
        strokeLinecap="round"
        strokeLinejoin="round"
        strokeWidth="3.448"
        d="M881.68 872.8V410.34c0-57.524 112.75-87.043 139.5-89.321 42.81-3.66 111.33 6.118 129.68-25.691h.02v0c18.35 31.809 86.87 22.031 129.69 25.691 26.74 2.278 139.5 31.797 139.5 89.321V872.8H881.68z"
        transform="matrix(1.25 0 0 -1.25 0 143.75) scale(.1)"
      ></path>
    </svg>