<?xml version="1.0" encoding="iso-8859-1"?>
<!-- Generator: Adobe Illustrator 16.0.0, SVG Export Plug-In . SVG Version: 6.00 Build 0)  -->
<!DOCTYPE svg PUBLIC "-//W3C//DTD SVG 1.1//EN" "http://www.w3.org/Graphics/SVG/1.1/DTD/svg11.dtd">
<svg version="1.1" id="Capa_1" xmlns="http://www.w3.org/2000/svg" xmlns:xlink="http://www.w3.org/1999/xlink" x="0px" y="0px"
	 width="372.19px" height="372.19px" viewBox="0 0 372.19 372.19" style="enable-background:new 0 0 372.19 372.19;"
	 xml:space="preserve">
<g>
	<g>
		<path d="M184.591,11.111c-6.12-1.225-15.3-7.956-21.42-4.284c-2.448,1.224-1.836,4.284,0,5.508
			c2.448,1.836,6.732,1.836,10.404,2.448c3.672,0.611,6.732,0.611,10.404,0C186.427,14.783,187.039,11.111,184.591,11.111z"/>
		<path d="M123.391,10.499c-5.508,1.224-11.016,2.448-16.524,3.672c-4.896,1.224-9.792,1.836-13.464,5.508
			c-1.836,1.836-1.224,4.896,1.224,5.508c4.896,1.225,9.18-1.224,14.076-3.06c5.508-2.448,11.016-4.284,16.524-7.344
			C128.287,13.559,126.451,9.887,123.391,10.499z"/>
		<path d="M63.416,39.263c-3.672,1.225-6.732,3.672-9.792,6.12c-1.836,1.836-3.672,3.672-4.896,5.508
			c-1.836,1.836-3.672,3.061-3.672,6.12c0,1.836,1.224,3.061,3.06,3.061c4.284,0.611,6.732-4.896,8.568-7.956
			c2.448-3.061,4.284-6.732,7.956-9.181C66.475,41.711,65.863,38.65,63.416,39.263z"/>
		<path d="M28.531,90.671c-5.508,2.448-9.792,6.12-12.852,11.016c-3.672,4.896-8.568,12.24-7.956,18.973
			c0,3.06,3.672,3.672,5.508,1.224c3.06-4.896,3.672-11.016,6.732-15.912c2.448-4.896,6.732-9.18,11.016-12.852
			C32.203,91.895,30.367,89.447,28.531,90.671z"/>
		<path d="M8.947,157.991c0-1.836-3.06-1.836-3.06,0c-0.612,4.896-1.224,10.403-1.836,15.3c-0.612,4.284-2.448,8.567-2.448,12.852
			c-0.612,3.061,4.284,3.672,5.508,1.224C11.396,179.411,10.171,167.783,8.947,157.991z"/>
		<path d="M15.679,243.059c-2.448-4.896-4.284-10.404-6.732-15.3c-0.612-1.836-3.672-1.225-3.06,0.612
			c1.224,5.508,3.06,11.016,4.284,16.523c1.224,3.672,1.836,7.956,5.508,10.404c1.836,1.224,3.06-0.612,3.672-1.836
			C19.351,249.791,16.903,246.118,15.679,243.059z"/>
		<path d="M50.563,307.931c-2.448-2.448-5.508-4.284-7.956-6.732c-2.448-3.06-4.896-6.731-5.508-10.403
			c0-1.836-3.06-1.225-3.06,0.611c0,4.284,1.224,8.568,3.672,12.24c1.836,3.672,5.508,8.568,9.792,9.18
			C50.563,312.826,52.399,310.379,50.563,307.931z"/>
		<path d="M103.807,349.547c-3.672-3.061-8.568-4.284-12.852-6.732c-4.896-3.06-9.18-7.344-12.852-11.628
			c-1.224-1.224-2.448,0.612-1.836,1.836c3.06,5.508,6.732,9.792,11.628,13.464c4.284,3.061,9.792,7.345,15.3,7.345
			C103.807,353.219,105.031,350.771,103.807,349.547z"/>
		<path d="M176.023,367.906c-9.18-4.896-22.032-3.06-32.436-5.508c-1.224-0.611-1.836,1.836-0.612,1.836
			c4.896,1.836,9.18,3.061,14.076,4.284c5.508,1.224,11.628,3.672,17.748,3.672C177.247,372.19,177.859,369.131,176.023,367.906z"/>
		<path d="M239.06,360.562c-4.284-1.224-9.181-0.612-14.076,0c-4.896,0.612-10.404,0.612-15.3,1.225c-2.448,0-2.448,3.672,0,3.672
			c4.896,0.611,10.403,0.611,15.3,1.224c4.896,0,9.18,1.224,14.076,0C241.507,366.07,241.507,361.787,239.06,360.562z"/>
		<path d="M308.827,307.931c-4.284,3.672-6.731,9.18-10.404,13.464c-3.672,3.672-9.18,6.732-14.075,8.568
			c-2.448,1.224-0.612,4.283,1.836,3.672c5.508-1.225,11.016-3.672,15.3-7.344c4.896-4.284,11.628-9.792,12.24-16.524
			C313.724,307.318,310.663,306.707,308.827,307.931z"/>
		<path d="M352.279,248.566c-7.956,11.017-12.852,23.256-23.868,31.824c-1.836,1.224,0.612,3.672,2.448,3.06
			c11.628-6.731,23.256-19.584,27.54-32.436C359.012,247.343,354.115,245.507,352.279,248.566z"/>
		<path d="M365.743,184.919c-3.06,3.672-3.672,9.18-4.896,14.075c-1.836,6.12-4.284,12.853-7.345,18.36
			c-1.224,2.448,2.448,4.284,3.672,2.448c3.061-4.896,6.12-9.792,7.956-15.3c2.448-5.509,5.509-11.628,5.509-17.748
			C370.027,184.307,367.579,183.083,365.743,184.919z"/>
		<path d="M361.459,131.675c0-6.12,0.612-12.24-0.611-18.36c-0.612-2.447-4.896-2.447-5.509,0c-3.06,12.24,0.612,27.54,3.673,39.168
			c0.611,2.448,4.283,1.225,3.672-1.224C362.071,144.527,361.459,138.407,361.459,131.675z"/>
		<path d="M335.755,62.519c-3.06-4.284-6.731-11.016-12.239-11.628c-1.225,0-3.061,1.225-2.448,2.448
			c0.612,4.896,5.508,7.956,9.18,11.016c4.284,4.284,8.568,9.181,11.628,14.688c0.612,1.224,3.061,0.612,2.448-1.224
			C342.487,72.923,339.428,67.415,335.755,62.519z"/>
		<path d="M302.707,32.531c-3.672-2.448-7.344-4.896-11.016-7.956c-3.672-3.061-7.344-7.956-11.628-9.181
			c-2.448-0.611-5.508,1.836-4.284,4.284c1.836,4.896,7.344,7.956,11.628,10.404c4.284,3.06,8.568,4.896,13.464,6.731
			C303.932,39.263,305.768,34.367,302.707,32.531z"/>
		<path d="M304.543,0.707c-18.972-1.225-37.943-0.612-56.916,0c-4.283,0-7.956,6.731-4.283,9.792
			c6.731,5.508,11.016,14.076,17.136,20.808c3.672,3.061,7.956-1.836,4.896-4.896c-3.06-4.284-6.12-9.181-8.567-13.464
			c15.912,0.611,31.212,0.611,47.124,0C311.888,11.723,311.888,1.319,304.543,0.707z"/>
	</g>
</g>
<g>
</g>
<g>
</g>
<g>
</g>
<g>
</g>
<g>
</g>
<g>
</g>
<g>
</g>
<g>
</g>
<g>
</g>
<g>
</g>
<g>
</g>
<g>
</g>
<g>
</g>
<g>
</g>
<g>
</g>
</svg>
